<svg width="163" height="44" viewBox="0 0 163 44" fill="none" xmlns="http://www.w3.org/2000/svg">
<path d="M136.663 24.4355C137.283 24.4356 137.912 24.499 138.55 24.627C139.188 24.7367 139.717 24.956 140.137 25.2852C140.574 25.5961 140.793 26.0537 140.793 26.6572C140.793 26.8767 140.747 27.1241 140.656 27.3984C140.565 27.6543 140.392 27.7822 140.137 27.7822C140.027 27.7822 139.881 27.7641 139.699 27.7275C139.517 27.6727 139.353 27.6264 139.207 27.5898C139.243 27.7726 139.271 27.974 139.289 28.1934C139.326 28.4128 139.344 28.6421 139.344 28.8799C139.344 29.9589 138.978 30.9375 138.249 31.8154C137.52 32.675 136.453 33.187 135.049 33.3516C134.538 33.3881 134.156 33.4525 133.9 33.5439C133.663 33.6171 133.545 33.754 133.545 33.9551C133.545 34.138 133.654 34.2757 133.873 34.3672C134.092 34.4403 134.374 34.4947 134.721 34.5312C135.833 34.6227 136.818 34.7786 137.675 34.998C138.532 35.2175 139.198 35.5645 139.672 36.04C140.164 36.5339 140.41 37.2297 140.41 38.126C140.41 39.1683 140.1 40.0647 139.48 40.8145C138.879 41.5826 138.067 42.177 137.046 42.5977C136.025 43.0183 134.912 43.2285 133.709 43.2285C132.341 43.2285 131.256 42.9449 130.454 42.3779C129.652 41.811 129.25 41.0797 129.25 40.1836C129.25 39.5253 129.451 38.9398 129.852 38.4277C130.271 37.9156 130.818 37.6592 131.493 37.6592C131.876 37.6592 132.067 37.7689 132.067 37.9883C132.067 38.1163 132.04 38.2631 131.985 38.4277C131.949 38.5921 131.931 38.7565 131.931 38.9209C131.931 39.4329 132.222 39.8081 132.806 40.0459C133.389 40.302 134.092 40.4297 134.912 40.4297C135.423 40.4297 135.943 40.3754 136.472 40.2656C137 40.1559 137.438 39.9819 137.784 39.7441C138.149 39.5247 138.331 39.223 138.331 38.8389C138.331 38.4182 138.122 38.1074 137.702 37.9062C137.283 37.7051 136.754 37.5492 136.116 37.4395C135.478 37.348 134.821 37.2565 134.146 37.165C133.49 37.0919 132.924 36.9642 132.45 36.7812C131.849 36.5801 131.402 36.3326 131.11 36.04C130.819 35.7475 130.673 35.373 130.673 34.916C130.673 34.0564 131.192 33.3696 132.231 32.8574C131.63 32.5465 131.174 32.1078 130.864 31.541C130.572 30.974 130.427 30.3425 130.427 29.6475C130.427 28.7514 130.655 27.9104 131.11 27.124C131.584 26.3375 132.278 25.697 133.189 25.2031C134.119 24.6911 135.277 24.4355 136.663 24.4355ZM21.7314 7.83984C22.6339 6.95186 24.0811 6.95162 24.9834 7.83984L37.9727 20.627C38.99 21.6285 38.2813 23.3613 36.8545 23.3613H35.6045V32.5752C35.6044 34.7388 33.8526 36.493 31.6914 36.4932H15.0225C12.8613 36.4929 11.1094 34.7388 11.1094 32.5752V23.3613H9.85938C8.43252 23.3613 7.72386 21.6285 8.74121 20.627L21.7314 7.83984ZM94.0391 24.5176C94.5679 24.5176 94.9059 24.7368 95.0518 25.1758C95.1976 25.6147 95.2705 26.0995 95.2705 26.6299C95.2705 27.6358 95.0883 28.6877 94.7236 29.7852C94.359 30.8825 93.866 31.9064 93.2461 32.8574C92.6261 33.8085 91.9238 34.5768 91.1396 35.1621C90.3739 35.7473 89.5812 36.04 88.7607 36.04C88.2684 36.04 87.8393 35.8942 87.4746 35.6016C87.1282 35.2906 86.9186 34.7234 86.8457 33.9004C86.8092 33.2785 86.7272 32.5927 86.5996 31.8428C86.4902 31.093 86.3444 30.3798 86.1621 29.7031C85.9798 29.0264 85.7702 28.4954 85.5332 28.1113C85.4056 27.9101 85.2588 27.7643 85.0947 27.6729C84.9488 27.5632 84.721 27.4897 84.4111 27.4531C84.2107 27.4348 84.0739 27.3704 84.001 27.2607C83.9281 27.151 83.8916 26.9769 83.8916 26.7393C83.8917 25.9897 84.0922 25.4412 84.4932 25.0938C84.9126 24.7279 85.3872 24.5449 85.916 24.5449C86.4629 24.545 86.9186 24.728 87.2832 25.0938C87.6479 25.4413 87.9303 25.9079 88.1309 26.4932C88.3314 27.0783 88.4691 27.7273 88.542 28.4404C88.6332 29.1355 88.6787 29.8404 88.6787 30.5537C88.6787 30.8462 88.6696 31.1573 88.6514 31.4863V32.2812C88.6514 32.4824 88.6878 32.6383 88.7607 32.748C88.8519 32.8577 89.016 32.9131 89.2529 32.9131C89.5446 32.9131 89.8819 32.8305 90.2646 32.666C90.6476 32.4831 91.022 32.2267 91.3867 31.8975C91.7695 31.5683 92.0794 31.184 92.3164 30.7451C92.5716 30.2879 92.6992 29.7849 92.6992 29.2363C92.6992 28.9255 92.6445 28.5964 92.5352 28.249C92.444 27.9017 92.289 27.6088 92.0703 27.3711C91.8517 27.1335 91.6875 26.9503 91.5781 26.8223C91.487 26.6759 91.4414 26.511 91.4414 26.3281C91.4414 25.9989 91.5872 25.6972 91.8789 25.4229C92.1888 25.1486 92.5443 24.9292 92.9453 24.7646C93.3645 24.6001 93.7291 24.5176 94.0391 24.5176ZM53.0146 18.0146C54.6921 18.0147 55.6861 18.0518 55.9961 18.125C56.4699 18.1982 56.707 18.4547 56.707 18.8936C56.7069 19.4421 56.5156 19.9452 56.1328 20.4023C55.9322 20.6767 55.7308 20.8778 55.5303 21.0059C55.3297 21.1154 55.047 21.1609 54.6826 21.1426C53.8804 21.0877 53.1779 21.0515 52.5762 21.0332C51.9747 21.0149 51.5554 21.0059 51.3184 21.0059C50.8991 21.0059 50.4616 21.0149 50.0059 21.0332C49.5682 21.0515 49.1209 21.0787 48.665 21.1152C48.665 21.7553 48.6377 22.4413 48.583 23.1729C48.5283 23.9044 48.4554 24.6728 48.3643 25.4775C49.2031 25.4227 50.1514 25.3865 51.209 25.3682C52.2666 25.3316 53.2058 25.3135 54.0264 25.3135C54.3909 25.3135 54.637 25.3497 54.7646 25.4229C54.9105 25.496 54.9834 25.6881 54.9834 25.999C54.9834 26.2916 54.9014 26.6206 54.7373 26.9863C54.5915 27.3338 54.3909 27.6356 54.1357 27.8916C54.0264 28.0013 53.9078 28.0929 53.7803 28.166C53.6527 28.2209 53.4794 28.2399 53.2607 28.2217C52.4767 28.1851 51.5829 28.157 50.5801 28.1387C49.5954 28.1204 48.7291 28.1204 47.9814 28.1387C47.9085 28.5593 47.8539 28.9436 47.8174 29.291C47.7809 29.6384 47.7627 29.9494 47.7627 30.2236C47.7627 31.2296 48.0177 31.9345 48.5283 32.3369C49.0389 32.7393 49.8779 32.9404 51.0449 32.9404C51.7561 32.9404 52.4402 32.8761 53.0967 32.748C53.7711 32.62 54.4548 32.3825 55.1475 32.0352C55.4028 31.8888 55.595 31.8154 55.7227 31.8154C55.923 31.8157 56.1147 31.9616 56.2969 32.2539C56.4975 32.5283 56.5977 32.8309 56.5977 33.1602C56.5975 33.5622 56.4424 33.946 56.1328 34.3115C55.8411 34.659 55.4484 34.9617 54.9561 35.2178C54.3909 35.4737 53.7164 35.6659 52.9326 35.7939C52.1486 35.9403 51.3368 36.0127 50.498 36.0127C48.7658 36.0127 47.4804 35.7381 46.6416 35.1895C45.8211 34.6225 45.4102 33.5714 45.4102 32.0352C45.4102 31.7243 45.4284 31.349 45.4648 30.9102C45.5195 30.4712 45.5924 29.9402 45.6836 29.3184C45.8295 28.4222 45.9388 27.6266 46.0117 26.9316C46.0847 26.2183 46.1211 25.4409 46.1211 24.5996C46.1211 24.051 46.1029 23.5208 46.0664 23.0088C46.0482 22.4968 46.0026 22.0119 45.9297 21.5547C45.6564 21.6095 45.4739 21.6367 45.3828 21.6367C45.2371 21.6367 45.1368 21.6094 45.082 21.5547C45.0273 21.4815 45 21.3528 45 21.1699C45 20.7859 45.0456 20.4106 45.1367 20.0449C45.2279 19.661 45.3555 19.35 45.5195 19.1123C45.8295 18.6734 46.3042 18.4179 46.9424 18.3447C47.4346 18.2899 48.0361 18.2345 48.7471 18.1797C49.4765 18.1248 50.2153 18.0886 50.9629 18.0703C51.7288 18.0337 52.4129 18.0146 53.0146 18.0146ZM78.5879 24.4355C79.682 24.4356 80.6121 24.6276 81.3779 25.0117C82.1618 25.3775 82.5537 25.8804 82.5537 26.5205C82.5537 26.6851 82.5355 26.9045 82.499 27.1787C82.4626 27.4347 82.417 27.645 82.3623 27.8096C82.3076 27.9559 82.2256 28.0936 82.1162 28.2217C82.0251 28.3312 81.8973 28.3857 81.7334 28.3857C81.6605 28.3857 81.5237 28.3585 81.3232 28.3037C81.2503 28.6878 81.1956 29.0629 81.1592 29.4287C81.1227 29.7943 81.1045 30.1598 81.1045 30.5254C81.1045 31.2204 81.2047 31.8429 81.4053 32.3916C81.6241 32.9218 82.0433 33.2508 82.6631 33.3789C82.8271 33.4155 82.9547 33.4708 83.0459 33.5439C83.1552 33.6171 83.2099 33.7722 83.21 34.0098C83.21 34.211 83.1553 34.4674 83.0459 34.7783C82.9547 35.0892 82.7634 35.3729 82.4717 35.6289C82.1982 35.8666 81.7972 35.9853 81.2686 35.9854C80.5575 35.9854 80.0099 35.7298 79.627 35.2178C79.244 34.6874 79.0528 33.9371 79.0527 32.9678C78.5604 33.8639 77.9309 34.5951 77.165 35.1621C76.4175 35.729 75.5336 36.0126 74.5127 36.0127C73.4187 36.0127 72.534 35.6746 71.8594 34.998C71.203 34.3031 70.8741 33.3153 70.874 32.0352C70.874 31.1206 71.0481 30.2146 71.3945 29.3184C71.7592 28.4041 72.2786 27.5811 72.9531 26.8496C73.6278 26.118 74.4395 25.5327 75.3877 25.0938C76.3359 24.6548 77.4026 24.4355 78.5879 24.4355ZM123.837 24.4355C124.931 24.4355 125.861 24.6276 126.627 25.0117C127.411 25.3775 127.803 25.8804 127.803 26.5205C127.803 26.6851 127.784 26.9045 127.748 27.1787C127.712 27.4347 127.666 27.645 127.611 27.8096C127.557 27.9559 127.475 28.0936 127.365 28.2217C127.274 28.3312 127.146 28.3857 126.982 28.3857C126.909 28.3857 126.773 28.3585 126.572 28.3037C126.499 28.6878 126.445 29.063 126.408 29.4287C126.372 29.7943 126.354 30.1598 126.354 30.5254C126.354 31.2204 126.454 31.8429 126.654 32.3916C126.873 32.9218 127.292 33.2508 127.912 33.3789C128.076 33.4155 128.205 33.4708 128.296 33.5439C128.405 33.6172 128.46 33.7725 128.46 34.0098C128.46 34.2109 128.405 34.4675 128.296 34.7783C128.205 35.0893 128.012 35.3728 127.721 35.6289C127.447 35.8666 127.046 35.9854 126.518 35.9854C125.806 35.9854 125.259 35.7299 124.876 35.2178C124.493 34.6874 124.302 33.9371 124.302 32.9678C123.81 33.8638 123.181 34.5952 122.415 35.1621C121.667 35.7291 120.783 36.0127 119.762 36.0127C118.668 36.0127 117.783 35.6747 117.108 34.998C116.452 34.3031 116.124 33.3153 116.124 32.0352C116.124 31.1206 116.297 30.2146 116.644 29.3184C117.008 28.4041 117.528 27.5811 118.202 26.8496C118.877 26.118 119.689 25.5327 120.637 25.0938C121.585 24.6548 122.652 24.4356 123.837 24.4355ZM148.515 24.4629C149.609 24.4629 150.484 24.7366 151.141 25.2852C151.797 25.8156 152.126 26.5295 152.126 27.4258C152.126 28.139 151.906 28.7978 151.469 29.4014C151.031 30.0048 150.448 30.4897 149.719 30.8555C148.989 31.203 148.178 31.376 147.284 31.376C146.19 31.376 145.296 31.1296 144.604 30.6357C144.622 31.477 144.904 32.1539 145.451 32.666C146.016 33.1781 146.737 33.4336 147.612 33.4336C148.141 33.4336 148.68 33.3431 149.227 33.1602C149.792 32.959 150.275 32.6934 150.676 32.3643C150.931 32.1449 151.168 32.0352 151.387 32.0352C151.569 32.0352 151.715 32.0988 151.824 32.2266C151.952 32.3363 152.016 32.4831 152.016 32.666C152.016 33.0684 151.669 33.5985 150.977 34.2568C149.755 35.4274 148.305 36.0126 146.628 36.0127C145.242 36.0127 144.157 35.6195 143.373 34.833C142.607 34.0283 142.224 32.9129 142.224 31.4863C142.224 30.1878 142.507 29.0081 143.072 27.9473C143.638 26.8865 144.394 26.0447 145.342 25.4229C146.308 24.7827 147.366 24.463 148.515 24.4629ZM159.526 24.4355C160.091 24.4356 160.638 24.499 161.167 24.627C161.696 24.755 162.134 24.9471 162.48 25.2031C162.827 25.4591 163 25.7792 163 26.1631C163 26.4923 162.882 26.795 162.645 27.0693C162.426 27.3435 162.161 27.572 161.852 27.7549C161.56 27.9195 161.313 28.002 161.112 28.002C160.967 28.0018 160.793 27.9012 160.593 27.7002C160.283 27.4442 159.937 27.2702 159.554 27.1787C159.189 27.069 158.825 27.0137 158.46 27.0137C157.913 27.0137 157.466 27.0961 157.119 27.2607C156.791 27.4253 156.627 27.6357 156.627 27.8916C156.627 28.1293 156.764 28.3215 157.037 28.4678C157.329 28.6141 157.684 28.7247 158.104 28.7979C158.523 28.8527 158.925 28.907 159.308 28.9619C160.365 29.1082 161.204 29.3647 161.824 29.7305C162.444 30.078 162.754 30.6997 162.754 31.5957C162.754 32.2906 162.553 32.9857 162.152 33.6807C161.769 34.3574 161.204 34.9155 160.456 35.3545C159.727 35.7934 158.851 36.0127 157.83 36.0127C157.156 36.0127 156.527 35.9121 155.943 35.7109C155.36 35.5097 154.885 35.2262 154.521 34.8604C154.156 34.4946 153.974 34.0559 153.974 33.5439C153.974 33.2696 154.037 33.0132 154.165 32.7754C154.311 32.5195 154.539 32.3917 154.849 32.3916C155.013 32.3916 155.187 32.4369 155.369 32.5283C155.697 32.7112 156.116 32.8852 156.627 33.0498C157.138 33.1961 157.676 33.2695 158.241 33.2695C158.879 33.2695 159.444 33.178 159.937 32.9951C160.429 32.8122 160.675 32.5558 160.675 32.2266C160.675 31.9707 160.483 31.7874 160.101 31.6777C159.736 31.568 159.116 31.4493 158.241 31.3213C157.639 31.2116 157.055 31.0838 156.49 30.9375C155.925 30.7912 155.459 30.5438 155.095 30.1963C154.73 29.8305 154.548 29.3002 154.548 28.6055C154.548 27.9287 154.73 27.2791 155.095 26.6572C155.478 26.0171 156.043 25.4871 156.791 25.0664C157.539 24.6457 158.451 24.4355 159.526 24.4355ZM60.5879 17C61.0618 17 61.4173 17.2195 61.6543 17.6582C61.8913 18.0788 62.0462 18.6643 62.1191 19.4141C62.1921 20.1457 62.2285 20.9874 62.2285 21.9385C62.2285 23.3834 62.1648 24.6364 62.0371 25.6973C61.9277 26.7579 61.8184 27.6905 61.709 28.4951C61.636 29.0255 61.5632 29.5293 61.4902 30.0049C61.4356 30.4803 61.4082 30.91 61.4082 31.2939C61.4082 31.9341 61.5084 32.4007 61.709 32.6934C61.9278 32.9677 62.2749 33.2422 62.749 33.5166C62.8764 33.5896 62.9678 33.6623 63.0225 33.7354C63.0953 33.7902 63.1318 33.882 63.1318 34.0098C63.1318 34.1561 63.059 34.3854 62.9131 34.6963C62.7672 35.0072 62.5112 35.2908 62.1465 35.5469C61.8001 35.8027 61.317 35.9306 60.6973 35.9307C60.1685 35.9307 59.7758 35.7848 59.5205 35.4922C59.2652 35.1995 59.1377 34.6867 59.1377 33.9551C59.1377 33.6077 59.1651 33.1597 59.2197 32.6113C59.2744 32.0626 59.3382 31.4673 59.4111 30.8271C59.5205 30.0408 59.6126 29.2179 59.6855 28.3584C59.7767 27.4989 59.8222 26.676 59.8223 25.8896C59.8223 24.774 59.7676 23.6214 59.6582 22.4326C59.567 21.2255 59.2928 20.1736 58.8369 19.2773C58.6728 18.9115 58.5908 18.6461 58.5908 18.4814C58.5908 18.2438 58.6912 18.0153 58.8916 17.7959C59.1104 17.5764 59.3756 17.3934 59.6855 17.2471C59.9954 17.0826 60.2962 17 60.5879 17ZM66.8115 17C67.2855 17 67.6409 17.2195 67.8779 17.6582C68.115 18.0788 68.2698 18.6643 68.3428 19.4141C68.4157 20.1457 68.4531 20.9874 68.4531 21.9385C68.4531 23.3834 68.3884 24.6364 68.2607 25.6973C68.1514 26.7579 68.042 27.6905 67.9326 28.4951C67.8597 29.0255 67.7868 29.5293 67.7139 30.0049C67.6592 30.4803 67.6318 30.91 67.6318 31.2939C67.6318 31.934 67.7321 32.4007 67.9326 32.6934C68.1514 32.9677 68.4985 33.2422 68.9727 33.5166C69.1 33.5896 69.1914 33.6623 69.2461 33.7354C69.319 33.7902 69.3554 33.882 69.3555 34.0098C69.3555 34.1561 69.2826 34.3854 69.1367 34.6963C68.9908 35.0072 68.7348 35.2908 68.3701 35.5469C68.0237 35.8027 67.5406 35.9307 66.9209 35.9307C66.3924 35.9307 66.0004 35.7845 65.7451 35.4922C65.4898 35.1995 65.3623 34.6867 65.3623 33.9551C65.3623 33.6077 65.3897 33.1598 65.4443 32.6113C65.499 32.0626 65.5628 31.4673 65.6357 30.8271C65.7451 30.0408 65.8363 29.2179 65.9092 28.3584C66.0003 27.4989 66.0459 26.676 66.0459 25.8896C66.0459 24.774 65.9912 23.6214 65.8818 22.4326C65.7907 21.2254 65.5164 20.1736 65.0605 19.2773C64.8964 18.9115 64.8145 18.6461 64.8145 18.4814C64.8145 18.2438 64.9149 18.0153 65.1152 17.7959C65.3341 17.5764 65.5992 17.3934 65.9092 17.2471C66.2191 17.0825 66.5198 17 66.8115 17ZM99.4629 24.4902C99.9186 24.4903 100.247 24.609 100.447 24.8467C100.666 25.0844 100.812 25.3862 100.885 25.752C100.958 26.1178 100.994 26.4929 100.994 26.877C100.994 27.4622 100.949 28.0385 100.857 28.6055C100.766 29.1541 100.675 29.6661 100.584 30.1416C100.511 30.4889 100.456 30.809 100.42 31.1016C100.383 31.3941 100.365 31.6688 100.365 31.9248C100.365 32.3821 100.475 32.73 100.693 32.9678C100.912 33.1872 101.222 33.3975 101.623 33.5986C101.787 33.69 101.869 33.8271 101.869 34.0098C101.869 34.1561 101.796 34.3854 101.65 34.6963C101.504 35.0071 101.249 35.2909 100.885 35.5469C100.538 35.8028 100.064 35.9306 99.4629 35.9307C98.9159 35.9307 98.4867 35.7847 98.1768 35.4922C97.8668 35.1812 97.7119 34.6594 97.7119 33.9277C97.7119 33.5071 97.7484 33.0957 97.8213 32.6934C97.9125 32.291 98.0127 31.8977 98.1221 31.5137C98.2497 31.1114 98.3499 30.6998 98.4229 30.2793C98.514 29.8586 98.5596 29.4101 98.5596 28.9346C98.5596 28.6054 98.514 28.2946 98.4229 28.002C98.3317 27.691 98.1313 27.4618 97.8213 27.3154C97.5843 27.1874 97.3747 27.0596 97.1924 26.9316C97.0283 26.7853 96.9463 26.6023 96.9463 26.3828C96.9464 26.1268 97.0648 25.8521 97.3018 25.5596C97.5387 25.2671 97.8487 25.0204 98.2314 24.8193C98.6326 24.5998 99.0435 24.4902 99.4629 24.4902ZM105.837 17C106.311 17 106.666 17.2195 106.903 17.6582C107.14 18.0788 107.296 18.6643 107.369 19.4141C107.442 20.1457 107.479 20.9874 107.479 21.9385C107.479 23.3834 107.414 24.6364 107.286 25.6973C107.177 26.7579 107.067 27.6905 106.958 28.4951C106.885 29.0255 106.812 29.5293 106.739 30.0049C106.685 30.4803 106.657 30.91 106.657 31.2939C106.657 31.934 106.757 32.4007 106.958 32.6934C107.177 32.9677 107.524 33.2422 107.998 33.5166C108.125 33.5896 108.217 33.6623 108.271 33.7354C108.344 33.7902 108.381 33.882 108.381 34.0098C108.381 34.1561 108.308 34.3854 108.162 34.6963C108.016 35.0071 107.761 35.2909 107.396 35.5469C107.05 35.8029 106.566 35.9307 105.946 35.9307C105.418 35.9307 105.026 35.7845 104.771 35.4922C104.515 35.1995 104.388 34.6867 104.388 33.9551C104.388 33.6077 104.415 33.1598 104.47 32.6113C104.524 32.0626 104.588 31.4673 104.661 30.8271C104.771 30.0408 104.862 29.2179 104.935 28.3584C105.026 27.4989 105.071 26.676 105.071 25.8896C105.071 24.774 105.017 23.6214 104.907 22.4326C104.816 21.2254 104.542 20.1736 104.086 19.2773C103.922 18.9115 103.84 18.6461 103.84 18.4814C103.84 18.2438 103.94 18.0152 104.141 17.7959C104.359 17.5764 104.625 17.3934 104.935 17.2471C105.245 17.0825 105.545 17 105.837 17ZM112.061 17C112.535 17 112.891 17.2192 113.128 17.6582C113.365 18.0788 113.52 18.6643 113.593 19.4141C113.666 20.1457 113.702 20.9874 113.702 21.9385C113.702 23.3834 113.638 24.6364 113.511 25.6973C113.401 26.7578 113.292 27.6905 113.183 28.4951C113.11 29.0255 113.036 29.5293 112.963 30.0049C112.908 30.4802 112.881 30.91 112.881 31.2939C112.881 31.9341 112.982 32.4007 113.183 32.6934C113.401 32.9676 113.748 33.2423 114.222 33.5166C114.349 33.5896 114.44 33.6623 114.495 33.7354C114.568 33.7902 114.604 33.882 114.604 34.0098C114.604 34.1561 114.532 34.3854 114.386 34.6963C114.24 35.0071 113.985 35.2909 113.62 35.5469C113.274 35.8029 112.79 35.9307 112.17 35.9307C111.641 35.9306 111.249 35.7846 110.994 35.4922C110.739 35.1995 110.611 34.6867 110.611 33.9551C110.611 33.6077 110.639 33.1598 110.693 32.6113C110.748 32.0626 110.812 31.4673 110.885 30.8271C110.994 30.0408 111.085 29.2179 111.158 28.3584C111.249 27.4989 111.295 26.676 111.295 25.8896C111.295 24.774 111.24 23.6214 111.131 22.4326C111.04 21.2256 110.766 20.1735 110.311 19.2773C110.146 18.9115 110.063 18.6461 110.063 18.4814C110.064 18.2437 110.165 18.0154 110.365 17.7959C110.584 17.5764 110.848 17.3934 111.158 17.2471C111.468 17.0825 111.769 17 112.061 17ZM76.9736 27.2607C75.8615 27.2608 74.9412 27.5907 74.2119 28.249C73.5008 28.9075 73.1446 29.7301 73.1445 30.7178C73.1445 31.4492 73.3451 32.0438 73.7461 32.501C74.1473 32.9399 74.6948 33.1602 75.3877 33.1602C76.117 33.1601 76.7557 32.9309 77.3027 32.4736C77.8678 32.0164 78.3053 31.44 78.6152 30.7451C78.8158 30.3062 78.9707 29.8304 79.0801 29.3184C79.1895 28.7881 79.2624 28.2669 79.2988 27.7549C78.9889 27.6086 78.6335 27.4899 78.2324 27.3984C77.8313 27.307 77.4113 27.2607 76.9736 27.2607ZM122.224 27.2607C121.111 27.2607 120.19 27.5906 119.461 28.249C118.75 28.9075 118.394 29.7301 118.394 30.7178C118.394 31.4494 118.595 32.0437 118.996 32.501C119.397 32.9399 119.944 33.1601 120.637 33.1602C121.366 33.1602 122.005 32.9309 122.552 32.4736C123.117 32.0164 123.554 31.4401 123.864 30.7451C124.065 30.3062 124.22 29.8304 124.329 29.3184C124.438 28.788 124.511 28.2669 124.548 27.7549C124.238 27.6086 123.882 27.4899 123.481 27.3984C123.08 27.307 122.661 27.2608 122.224 27.2607ZM135.623 27.124C134.657 27.1241 133.9 27.3071 133.354 27.6729C132.806 28.0387 132.532 28.5415 132.532 29.1816C132.532 29.7486 132.734 30.1871 133.135 30.498C133.536 30.8089 134.073 30.9648 134.748 30.9648C135.587 30.9648 136.244 30.7365 136.718 30.2793C137.192 29.822 137.429 29.2267 137.429 28.4951C137.429 28.2941 137.41 28.0926 137.374 27.8916C137.338 27.6725 137.301 27.4899 137.265 27.3438C136.973 27.2523 136.69 27.197 136.417 27.1787C136.143 27.1421 135.878 27.124 135.623 27.124ZM147.694 27.0137C147.02 27.0137 146.427 27.1967 145.916 27.5625C145.424 27.91 145.068 28.404 144.85 29.0439C145.105 29.2085 145.433 29.3373 145.834 29.4287C146.235 29.5202 146.637 29.5654 147.038 29.5654C147.694 29.5654 148.241 29.4285 148.679 29.1543C149.116 28.8799 149.336 28.532 149.336 28.1113C149.336 27.7639 149.189 27.4983 148.897 27.3154C148.606 27.1145 148.205 27.0137 147.694 27.0137ZM21.7412 20.3867C20.9408 20.3868 20.2921 21.0366 20.292 21.8379V25.0303C20.292 25.8316 20.9408 26.4814 21.7412 26.4814H24.9297C25.7302 26.4814 26.3798 25.8316 26.3799 25.0303V21.8379C26.3798 21.0366 25.7301 20.3867 24.9297 20.3867H21.7412ZM99.709 18.4268C100.238 18.4451 100.648 18.601 100.939 18.8936C101.249 19.1862 101.395 19.5976 101.377 20.1279C101.359 20.6764 101.176 21.1333 100.83 21.499C100.484 21.8465 100.019 22.0204 99.4355 22.0205C98.925 22.0022 98.5141 21.8473 98.2041 21.5547C97.8941 21.262 97.7393 20.8498 97.7393 20.3193C97.7576 19.7526 97.949 19.2957 98.3135 18.9482C98.6782 18.5824 99.1437 18.4085 99.709 18.4268ZM7.13867 0C7.80132 0.000238491 7.90166 0.919743 7.39844 1.35156C6.19662 2.38278 5.43555 3.91418 5.43555 5.62305C5.43572 8.72822 7.94999 11.2451 11.0518 11.2451C11.7729 11.2451 12.3643 12.0672 11.8203 12.541C10.5671 13.632 8.92985 14.2929 7.13867 14.293C3.19629 14.293 9.45795e-05 11.0932 0 7.14648C0 3.19969 3.19623 0 7.13867 0ZM33.8799 4.66309C34.0667 4.15798 34.7809 4.15798 34.9678 4.66309L35.6816 6.5957C35.7403 6.75452 35.8658 6.87967 36.0244 6.93848L37.9551 7.6543C38.4594 7.8414 38.4594 8.55505 37.9551 8.74219L36.0244 9.45801C35.8658 9.51681 35.7404 9.64195 35.6816 9.80078L34.9678 11.7334C34.781 12.2387 34.0667 12.2386 33.8799 11.7334L33.166 9.80078C33.1073 9.64195 32.9819 9.51681 32.8232 9.45801L30.8926 8.74219C30.3882 8.55506 30.3882 7.8414 30.8926 7.6543L32.8232 6.93848C32.9819 6.87967 33.1073 6.75452 33.166 6.5957L33.8799 4.66309ZM15.5449 0.600586C15.7317 0.0952697 16.446 0.0952697 16.6328 0.600586L17.3467 2.5332C17.4054 2.692 17.5308 2.81721 17.6895 2.87598L19.6201 3.59082C20.1244 3.77793 20.1243 4.4925 19.6201 4.67969L17.6895 5.39453C17.5309 5.45327 17.4055 5.57865 17.3467 5.7373L16.6328 7.66992C16.446 8.17524 15.7317 8.17524 15.5449 7.66992L14.8301 5.7373C14.7713 5.57876 14.6467 5.45327 14.4883 5.39453L12.5576 4.67969C12.0529 4.4927 12.0529 3.7778 12.5576 3.59082L14.4883 2.87598C14.6468 2.81719 14.7713 2.69185 14.8301 2.5332L15.5449 0.600586Z" fill="white"/>
</svg>
