<svg width="811" height="150" viewBox="0 0 811 150" fill="none" xmlns="http://www.w3.org/2000/svg">
<path d="M315.851 94.166C318.48 94.166 320.769 94.8681 322.719 96.2734C324.668 97.6334 326.209 99.5374 327.343 101.985V94.8457H338.902V96.2061L334.143 96.8857V147.206L338.902 147.886V149.245H319.251V147.886L327.343 147.206V122.93C326.209 125.332 324.668 127.236 322.719 128.642C320.769 130.002 318.48 130.682 315.851 130.682C312.632 130.682 309.799 129.933 307.351 128.438C304.903 126.942 302.999 124.833 301.639 122.113C300.279 119.348 299.599 116.13 299.599 112.458C299.599 108.786 300.279 105.589 301.639 102.869C302.999 100.104 304.903 97.9735 307.351 96.4775C309.799 94.9362 312.632 94.166 315.851 94.166ZM44.0371 91.1055H42.6084L38.3926 80.5654C36.8059 79.1148 34.947 77.959 32.8164 77.0977C30.7312 76.2364 28.6688 75.8057 26.6289 75.8057C23.4556 75.8057 20.6443 76.6219 18.1963 78.2539C15.7938 79.8859 13.9127 82.2658 12.5527 85.3936C11.1927 88.5216 10.5127 92.2392 10.5127 96.5459V108.989C10.5127 113.296 11.1697 117.014 12.4844 120.142C13.799 123.27 15.6358 125.672 17.9932 127.35C20.3504 128.981 23.1159 129.798 26.2891 129.798C28.6009 129.798 30.9128 129.299 33.2246 128.302C35.5366 127.259 37.4635 125.876 39.0049 124.153L42.9482 113.206H44.377V130.682H42.9482L38.0527 127.214C36.4208 128.528 34.5618 129.548 32.4766 130.273C30.3914 130.999 28.3289 131.361 26.2891 131.361C21.3478 131.361 17.0181 130.16 13.3008 127.758C9.58345 125.355 6.70504 122 4.66504 117.693C2.67041 113.387 1.67288 108.423 1.67285 102.802C1.67285 97.1804 2.69242 92.2158 4.73242 87.9092C6.81775 83.5573 9.74227 80.203 13.5049 77.8457C17.3129 75.4431 21.6876 74.2412 26.6289 74.2412C28.5782 74.2412 30.5503 74.5817 32.5449 75.2617C34.5848 75.9417 36.4208 76.8933 38.0527 78.1172L42.6084 74.2412H44.0371V91.1055ZM67.1807 94.166C70.4446 94.166 73.4142 94.9362 76.0889 96.4775C78.7634 97.9735 80.8718 100.104 82.4131 102.869C83.9998 105.634 84.793 108.808 84.793 112.39C84.793 115.971 83.9997 119.167 82.4131 121.978C80.8718 124.743 78.7634 126.896 76.0889 128.438C73.4142 129.933 70.4446 130.682 67.1807 130.682C63.9167 130.682 60.9471 129.934 58.2725 128.438C55.5979 126.896 53.4675 124.743 51.8809 121.978C50.3395 119.167 49.5684 115.971 49.5684 112.39C49.5684 108.808 50.3395 105.634 51.8809 102.869C53.4675 100.104 55.598 97.9735 58.2725 96.4775C60.9471 94.9362 63.9167 94.166 67.1807 94.166ZM155.753 120.821C155.753 123.133 156.23 124.947 157.182 126.262C158.134 127.576 159.607 128.233 161.602 128.233C163.687 128.233 165.681 127.553 167.585 126.193C169.534 124.788 171.257 123.065 172.753 121.025V96.8174L167.993 96.1377V94.7773H179.554V127.962L184.313 128.642V130.002H172.753V123.474C171.121 125.74 169.149 127.508 166.837 128.777C164.57 130.047 162.122 130.682 159.493 130.682C156.229 130.682 153.645 129.865 151.741 128.233C149.883 126.601 148.953 124.176 148.953 120.958V96.8174L144.193 96.1377V94.7773H155.753V120.821ZM260.056 94.166C269.122 94.166 273.655 98.11 273.655 105.998V125.445C273.655 126.443 273.86 127.214 274.268 127.758C274.721 128.256 275.356 128.506 276.172 128.506C276.942 128.506 277.555 128.256 278.008 127.758C278.461 127.214 278.687 126.488 278.688 125.582H280.115C280.115 127.168 279.594 128.415 278.552 129.321C277.554 130.228 276.149 130.682 274.336 130.682C272.251 130.682 270.482 130.092 269.031 128.913C267.626 127.689 266.901 125.808 266.855 123.27C265.767 125.581 264.09 127.395 261.823 128.71C259.602 130.024 257.132 130.682 254.412 130.682C251.511 130.682 249.13 129.934 247.271 128.438C245.413 126.896 244.483 124.63 244.483 121.638C244.483 117.376 246.274 114.362 249.855 112.594C253.437 110.78 257.585 109.874 262.3 109.874H266.855V104.638C266.855 102.28 266.584 100.467 266.04 99.1973C265.541 97.8828 264.748 96.9762 263.66 96.4775C262.572 95.9335 261.098 95.6611 259.239 95.6611C257.109 95.6612 255.522 96.0919 254.479 96.9531C253.437 97.769 252.916 98.88 252.916 100.285C252.916 101.6 253.55 102.461 254.819 102.869C254.819 104.002 254.389 105 253.527 105.861C252.666 106.723 251.646 107.153 250.468 107.153C249.198 107.153 248.178 106.814 247.407 106.134C246.637 105.408 246.252 104.32 246.252 102.869C246.252 100.24 247.566 98.1325 250.195 96.5459C252.825 94.9592 256.112 94.166 260.056 94.166ZM351.66 120.821C351.66 123.133 352.136 124.947 353.088 126.262C354.04 127.576 355.513 128.233 357.508 128.233C359.593 128.233 361.587 127.553 363.491 126.193C365.441 124.788 367.164 123.065 368.66 121.025V96.8174L363.899 96.1377V94.7773H375.46V127.962L380.22 128.642V130.002H368.66V123.474C367.028 125.74 365.056 127.508 362.744 128.777C360.477 130.047 358.029 130.682 355.399 130.682C352.136 130.682 349.551 129.865 347.647 128.233C345.789 126.601 344.859 124.176 344.859 120.958V96.8174L340.1 96.1377V94.7773H351.66V120.821ZM437.41 94.166C440.266 94.1661 442.827 94.8001 445.094 96.0693C447.36 97.3387 449.128 99.1074 450.397 101.374C451.667 103.595 452.325 106.156 452.37 109.058H427.346V115.79C427.346 119.779 428.23 123.02 429.998 125.514C431.811 127.961 434.418 129.185 437.817 129.186C440.945 129.186 443.712 128.301 446.114 126.533C448.517 124.765 449.99 122.476 450.534 119.666H452.098C451.463 123.02 449.853 125.695 447.27 127.689C444.686 129.684 441.535 130.682 437.817 130.682C434.463 130.682 431.426 129.933 428.706 128.438C425.986 126.896 423.833 124.743 422.246 121.978C420.659 119.212 419.866 116.016 419.866 112.39C419.866 108.763 420.636 105.589 422.178 102.869C423.764 100.104 425.873 97.9735 428.502 96.4775C431.177 94.9363 434.146 94.166 437.41 94.166ZM544.753 94.166C553.819 94.1661 558.353 98.1102 558.353 105.998V125.445C558.353 126.443 558.557 127.214 558.965 127.758C559.418 128.256 560.053 128.506 560.868 128.506C561.639 128.506 562.252 128.256 562.705 127.758C563.158 127.214 563.385 126.488 563.385 125.582H564.812C564.812 127.168 564.291 128.415 563.249 129.321C562.252 130.228 560.846 130.682 559.032 130.682C556.947 130.682 555.179 130.092 553.729 128.913C552.323 127.689 551.598 125.808 551.553 123.27C550.465 125.582 548.787 127.395 546.521 128.71C544.299 130.025 541.828 130.682 539.108 130.682C536.207 130.682 533.827 129.933 531.969 128.438C530.11 126.896 529.181 124.63 529.181 121.638C529.181 117.376 530.971 114.362 534.553 112.594C538.134 110.78 542.282 109.874 546.997 109.874H551.553V104.638C551.553 102.28 551.28 100.467 550.736 99.1973C550.238 97.8828 549.444 96.9762 548.356 96.4775C547.268 95.9336 545.795 95.6611 543.937 95.6611C541.806 95.6611 540.219 96.092 539.177 96.9531C538.134 97.769 537.612 98.88 537.612 100.285C537.612 101.6 538.247 102.461 539.517 102.869C539.517 104.002 539.086 105 538.225 105.861C537.363 106.723 536.344 107.153 535.165 107.153C533.896 107.153 532.875 106.814 532.104 106.134C531.334 105.408 530.948 104.32 530.948 102.869C530.948 100.24 532.263 98.1325 534.893 96.5459C537.522 94.9592 540.809 94.166 544.753 94.166ZM616.251 94.166C619.515 94.166 622.485 94.9363 625.159 96.4775C627.834 97.9735 629.942 100.104 631.483 102.869C633.07 105.634 633.863 108.808 633.863 112.39C633.863 115.971 633.07 119.167 631.483 121.978C629.942 124.743 627.834 126.896 625.159 128.438C622.485 129.933 619.515 130.682 616.251 130.682C612.987 130.682 610.018 129.933 607.344 128.438C604.669 126.896 602.538 124.743 600.951 121.978C599.41 119.167 598.64 115.971 598.64 112.39C598.64 108.808 599.41 105.634 600.951 102.869C602.538 100.104 604.669 97.9735 607.344 96.4775C610.018 94.9364 612.987 94.1661 616.251 94.166ZM695.898 94.166C704.965 94.166 709.499 98.11 709.499 105.998V125.445C709.499 126.443 709.702 127.214 710.11 127.758C710.564 128.256 711.199 128.506 712.015 128.506C712.785 128.506 713.397 128.256 713.851 127.758C714.304 127.214 714.53 126.488 714.53 125.582H715.959C715.959 127.168 715.437 128.415 714.395 129.321C713.397 130.228 711.992 130.682 710.179 130.682C708.093 130.682 706.326 130.092 704.875 128.913C703.47 127.689 702.744 125.808 702.698 123.27C701.61 125.581 699.934 127.395 697.667 128.71C695.446 130.025 692.975 130.682 690.255 130.682C687.354 130.682 684.973 129.934 683.114 128.438C681.256 126.896 680.326 124.63 680.326 121.638C680.326 117.376 682.117 114.362 685.698 112.594C689.28 110.78 693.428 109.874 698.143 109.874H702.698V104.638C702.698 102.28 702.427 100.467 701.883 99.1973C701.384 97.8828 700.591 96.9762 699.503 96.4775C698.415 95.9336 696.941 95.6612 695.083 95.6611C692.952 95.6611 691.365 96.0918 690.322 96.9531C689.28 97.769 688.759 98.88 688.759 100.285C688.759 101.6 689.393 102.461 690.662 102.869C690.662 104.002 690.231 105 689.37 105.861C688.509 106.723 687.489 107.153 686.311 107.153C685.041 107.153 684.022 106.814 683.251 106.134C682.48 105.408 682.095 104.32 682.095 102.869C682.095 100.24 683.409 98.1324 686.038 96.5459C688.667 94.9592 691.954 94.166 695.898 94.166ZM727.341 101.918C728.474 99.5153 729.992 97.6334 731.896 96.2734C733.846 94.8681 736.158 94.166 738.833 94.166C742.051 94.1661 744.885 94.9132 747.333 96.4092C749.781 97.9052 751.685 100.036 753.045 102.802C754.405 105.522 755.085 108.718 755.085 112.39C755.085 116.062 754.405 119.281 753.045 122.046C751.685 124.766 749.781 126.896 747.333 128.438C744.885 129.933 742.051 130.682 738.833 130.682C736.158 130.682 733.846 130.002 731.896 128.642C729.993 127.236 728.474 125.332 727.341 122.93V130.002H715.78V128.642L720.541 127.962V77.6416L715.78 76.9619V75.6016H727.341V101.918ZM795.188 94.166C798.044 94.1661 800.606 94.8001 802.872 96.0693C805.139 97.3387 806.906 99.1074 808.176 101.374C809.445 103.595 810.103 106.156 810.148 109.058H785.124V115.79C785.124 119.779 786.008 123.02 787.776 125.514C789.59 127.961 792.196 129.185 795.596 129.186C798.724 129.186 801.49 128.301 803.893 126.533C806.295 124.765 807.768 122.476 808.312 119.666H809.876C809.241 123.02 807.632 125.695 805.048 127.689C802.464 129.684 799.313 130.682 795.596 130.682C792.241 130.682 789.204 129.933 786.484 128.438C783.764 126.896 781.611 124.743 780.024 121.978C778.438 119.212 777.645 116.016 777.645 112.39C777.645 108.763 778.415 105.589 779.956 102.869C781.543 100.104 783.651 97.9735 786.28 96.4775C788.955 94.9363 791.925 94.166 795.188 94.166ZM112.979 94.166C116.243 94.166 118.805 94.9813 120.664 96.6133C122.568 98.2453 123.52 100.671 123.52 103.89V127.962L128.279 128.642V130.002H112.64V128.642L116.72 127.962V104.025C116.72 101.668 116.244 99.8552 115.292 98.5859C114.34 97.2714 112.867 96.6134 110.872 96.6133C108.787 96.6133 106.769 97.3844 104.819 98.9258C102.915 100.422 101.216 102.281 99.7197 104.502V127.962L103.8 128.642V130.002H88.1602V128.642L92.9199 127.962V96.8174L88.1602 96.1377V94.7773H99.7197V102.121C101.397 99.6733 103.369 97.7471 105.636 96.3418C107.902 94.8912 110.35 94.166 112.979 94.166ZM211.298 94.166C214.562 94.166 217.124 94.9813 218.982 96.6133C220.886 98.2453 221.838 100.671 221.838 103.89V127.962L226.598 128.642V130.002H210.958V128.642L215.038 127.962V104.025C215.038 101.668 214.562 99.8552 213.61 98.5859C212.658 97.2713 211.185 96.6134 209.19 96.6133C207.105 96.6133 205.087 97.3844 203.138 98.9258C201.234 100.422 199.534 102.281 198.038 104.502V127.962L202.118 128.642V130.002H186.479V128.642L191.238 127.962V96.8174L186.479 96.1377V94.7773H198.038V102.121C199.715 99.6733 201.688 97.7471 203.954 96.3418C206.221 94.8912 208.669 94.1661 211.298 94.166ZM291.838 127.962L296.598 128.642V130.002H279.938V128.642L285.038 127.962V77.6416L279.938 76.9619V75.6016H291.838V127.962ZM394.013 127.962L398.772 128.642V130.002H382.452V128.642L387.213 127.962V96.8857L382.452 96.2061V94.8457H394.013V127.962ZM412.104 127.962L416.865 128.642V130.002H400.205V128.642L405.305 127.962V77.6416L400.205 76.9619V75.6016H412.104V127.962ZM476.751 94.166C478.474 94.166 479.992 94.6189 481.307 95.5254C482.621 96.3867 483.279 97.6336 483.279 99.2656C483.279 100.444 482.894 101.442 482.123 102.258C481.352 103.028 480.333 103.413 479.063 103.413C477.613 103.413 476.434 102.847 475.527 101.714C476.026 101.079 476.275 100.399 476.275 99.6738C476.275 98.9032 476.003 98.2912 475.459 97.8379C474.96 97.3392 474.28 97.0898 473.419 97.0898C472.467 97.0899 471.492 97.5427 470.495 98.4492C469.498 99.3105 468.364 100.671 467.095 102.529V127.962L472.535 128.642V130.002H455.535V128.642L460.295 127.962V96.8174L455.535 96.1377V94.7773H467.095V100.014C469.951 96.115 473.17 94.166 476.751 94.166ZM520.383 94.166C522.105 94.1661 523.624 94.6188 524.938 95.5254C526.253 96.3867 526.91 97.6336 526.91 99.2656C526.91 100.444 526.526 101.442 525.755 102.258C524.984 103.028 523.964 103.413 522.694 103.413C521.244 103.413 520.065 102.847 519.158 101.714C519.657 101.079 519.906 100.399 519.906 99.6738C519.906 98.9033 519.635 98.2912 519.091 97.8379C518.592 97.3393 517.912 97.0899 517.051 97.0898C516.099 97.0898 515.124 97.5428 514.127 98.4492C513.13 99.3105 511.996 100.671 510.727 102.529V127.962L516.167 128.642V130.002H499.167V128.642L503.927 127.962V96.8174L499.167 96.1377V94.7773H510.727V100.014C513.583 96.115 516.801 94.166 520.383 94.166ZM594.963 96.4775L573.883 128.369H588.435L594.419 117.014H596.187L594.895 130.002H565.927V128.369L587.007 96.4775H573.543L567.967 107.018H566.267L567.15 94.7773H594.963V96.4775ZM662.051 94.166C665.315 94.1661 667.876 94.9814 669.734 96.6133C671.638 98.2453 672.591 100.671 672.591 103.89V127.962L677.351 128.642V130.002H661.711V128.642L665.79 127.962V104.025C665.79 101.668 665.314 99.8552 664.362 98.5859C663.41 97.2713 661.937 96.6133 659.942 96.6133C657.857 96.6133 655.84 97.3845 653.891 98.9258C651.987 100.422 650.286 102.281 648.79 104.502V127.962L652.87 128.642V130.002H637.23V128.642L641.99 127.962V96.8174L637.23 96.1377V94.7773H648.79V102.121C650.467 99.6733 652.44 97.7471 654.706 96.3418C656.973 94.8911 659.421 94.166 662.051 94.166ZM769.883 127.962L774.643 128.642V130.002H757.983V128.642L763.083 127.962V77.6416L757.983 76.9619V75.6016H769.883V127.962ZM67.1807 95.6611C63.826 95.6611 61.2871 96.886 59.5645 99.334C57.8873 101.737 57.0489 104.955 57.0488 108.989V115.79C57.0489 119.824 57.8872 123.066 59.5645 125.514C61.2871 127.962 63.826 129.186 67.1807 129.186C70.5353 129.186 73.0512 127.962 74.7285 125.514C76.4511 123.066 77.3124 119.824 77.3125 115.79V108.989C77.3125 104.955 76.451 101.737 74.7285 99.334C73.0512 96.886 70.5353 95.6611 67.1807 95.6611ZM616.251 95.6611C612.896 95.6612 610.358 96.8861 608.636 99.334C606.959 101.737 606.119 104.955 606.119 108.989V115.79C606.119 119.824 606.958 123.066 608.636 125.514C610.358 127.961 612.897 129.185 616.251 129.186C619.606 129.186 622.122 127.962 623.8 125.514C625.522 123.066 626.384 119.824 626.384 115.79V108.989C626.384 104.955 625.522 101.737 623.8 99.334C622.122 96.886 619.606 95.6611 616.251 95.6611ZM316.531 95.8652C310.23 95.8652 307.079 100.263 307.079 109.058V115.857C307.079 124.607 310.23 128.981 316.531 128.981C318.526 128.981 320.316 128.414 321.902 127.281C323.534 126.103 324.826 124.561 325.778 122.657C326.776 120.708 327.297 118.623 327.343 116.401V108.582C327.297 106.315 326.776 104.207 325.778 102.258C324.826 100.308 323.534 98.7671 321.902 97.6338C320.316 96.4553 318.526 95.8653 316.531 95.8652ZM738.152 95.8652C736.158 95.8653 734.345 96.4552 732.713 97.6338C731.081 98.7671 729.789 100.308 728.837 102.258C727.885 104.162 727.386 106.247 727.341 108.514V115.79C727.341 118.102 727.794 120.278 728.7 122.317C729.652 124.357 730.944 125.99 732.576 127.214C734.253 128.392 736.112 128.981 738.152 128.981C744.454 128.981 747.604 124.584 747.604 115.79V108.989C747.604 100.24 744.454 95.8652 738.152 95.8652ZM262.3 111.369C258.582 111.369 255.794 112.208 253.936 113.886C252.122 115.518 251.216 117.83 251.216 120.821C251.216 123.315 251.805 125.083 252.983 126.126C254.162 127.169 255.885 127.689 258.151 127.689C259.375 127.689 260.622 127.327 261.892 126.602C263.206 125.876 264.317 124.834 265.224 123.474C266.13 122.068 266.674 120.391 266.855 118.441V111.369H262.3ZM546.997 111.369C543.28 111.369 540.491 112.208 538.633 113.886C536.82 115.518 535.913 117.829 535.913 120.821C535.913 123.315 536.502 125.083 537.681 126.126C538.859 127.169 540.582 127.689 542.849 127.689C544.073 127.689 545.32 127.327 546.589 126.602C547.903 125.876 549.014 124.834 549.921 123.474C550.828 122.068 551.371 120.391 551.553 118.441V111.369H546.997ZM698.143 111.369C694.425 111.369 691.637 112.208 689.778 113.886C687.965 115.518 687.059 117.83 687.059 120.821C687.059 123.315 687.648 125.083 688.826 126.126C690.005 127.169 691.728 127.689 693.994 127.689C695.218 127.689 696.465 127.327 697.734 126.602C699.049 125.876 700.16 124.834 701.066 123.474C701.973 122.068 702.517 120.391 702.698 118.441V111.369H698.143ZM437.342 95.6611C434.304 95.6611 431.947 96.7268 430.27 98.8574C428.592 100.988 427.641 103.822 427.414 107.357H444.89C444.89 103.414 444.278 100.49 443.054 98.5859C441.83 96.6366 439.926 95.6611 437.342 95.6611ZM795.12 95.6611C792.083 95.6611 789.725 96.7268 788.048 98.8574C786.371 100.988 785.419 103.821 785.192 107.357H802.668C802.668 103.414 802.056 100.49 800.832 98.5859C799.608 96.6366 797.704 95.6611 795.12 95.6611ZM389.66 77.8457C390.884 77.8457 391.927 78.2765 392.788 79.1377C393.649 79.999 394.08 81.0647 394.08 82.334C394.08 83.6031 393.649 84.6911 392.788 85.5977C391.927 86.4588 390.884 86.8896 389.66 86.8896C388.391 86.8896 387.303 86.4589 386.396 85.5977C385.49 84.6911 385.036 83.6031 385.036 82.334C385.036 81.0648 385.467 79.999 386.328 79.1377C387.235 78.2764 388.346 77.8458 389.66 77.8457ZM75.1475 19.166C78.0035 19.166 80.5654 19.8 82.832 21.0693C85.0986 22.3387 86.8664 24.1074 88.1357 26.374C89.405 28.5953 90.0621 31.1564 90.1074 34.0576H65.084V40.79C65.0841 44.7791 65.9675 48.0205 67.7354 50.5137C69.5487 52.9616 72.1557 54.1855 75.5557 54.1855C78.6837 54.1855 81.4489 53.3012 83.8516 51.5332C86.2541 49.7653 87.7274 47.4764 88.2715 44.666H89.8359C89.2012 48.0205 87.5917 50.6949 85.0078 52.6895C82.4238 54.6841 79.273 55.6816 75.5557 55.6816C72.201 55.6816 69.1633 54.9335 66.4434 53.4375C63.7235 51.8962 61.57 49.7428 59.9834 46.9775C58.3968 44.2123 57.6035 41.0162 57.6035 37.3896C57.6035 33.763 58.3747 30.5891 59.916 27.8691C61.5027 25.104 63.611 22.9735 66.2402 21.4775C68.9147 19.9364 71.8837 19.1661 75.1475 19.166ZM108.029 19.166C111.248 19.1661 113.99 19.9133 116.257 21.4092C118.569 22.8598 119.725 24.946 119.725 27.666C119.725 28.7538 119.43 29.6375 118.841 30.3174C118.252 30.952 117.481 31.2695 116.529 31.2695C115.577 31.2695 114.784 31.02 114.149 30.5215C113.56 29.9775 113.265 29.2523 113.265 28.3457C113.854 27.8924 114.263 27.4166 114.489 26.918C114.716 26.374 114.829 25.739 114.829 25.0137C114.829 23.7444 114.262 22.7017 113.129 21.8857C112.041 21.0698 110.341 20.6612 108.029 20.6611C106.035 20.6611 104.312 20.9787 102.861 21.6133C101.456 22.2026 100.39 22.996 99.665 23.9932C98.9397 24.9905 98.5771 26.011 98.5771 27.0537C98.5772 28.1416 98.9628 29.0031 99.7334 29.6377C100.549 30.2723 102.023 30.9746 104.153 31.7451L113.673 35.1455C115.894 35.9615 117.572 37.0952 118.705 38.5459C119.838 39.9965 120.405 41.8776 120.405 44.1895C120.405 47.4988 119.363 50.242 117.277 52.418C115.192 54.594 112.018 55.6816 107.757 55.6816C104.04 55.6816 100.935 54.8882 98.4414 53.3018C95.9481 51.7151 94.7012 49.6519 94.7012 47.1133C94.7012 45.7989 95.0409 44.779 95.7207 44.0537C96.446 43.283 97.3985 42.8975 98.5771 42.8975C99.4835 42.8975 100.254 43.124 100.889 43.5771C101.523 44.0305 101.977 44.6655 102.249 45.4814C101.252 46.5693 100.753 47.7253 100.753 48.9492C100.753 50.3545 101.388 51.5784 102.657 52.6211C103.927 53.6637 105.626 54.1855 107.757 54.1855C110.613 54.1855 112.947 53.5506 114.761 52.2812C116.574 50.9667 117.48 49.2217 117.48 47.0459C117.48 45.7766 117.096 44.8241 116.325 44.1895C115.555 43.5548 114.058 42.8297 111.837 42.0137L101.569 38.2734C97.5347 36.8228 95.5166 34.1256 95.5166 30.1816C95.5166 26.9632 96.6275 24.3339 98.8486 22.2939C101.07 20.2086 104.131 19.166 108.029 19.166ZM142.953 19.166C145.537 19.1661 147.894 19.6189 150.024 20.5254C152.155 21.3867 153.833 22.6107 155.057 24.1973C156.326 25.7839 156.961 27.5748 156.961 29.5693C156.961 31.0652 156.575 32.2211 155.805 33.0371C155.034 33.8077 154.014 34.1933 152.745 34.1934C151.521 34.1934 150.501 33.7857 149.685 32.9697C148.869 32.1537 148.461 31.1332 148.461 29.9092C149.141 29.4559 149.617 28.957 149.889 28.4131C150.161 27.8692 150.297 27.1897 150.297 26.374C150.297 24.6968 149.617 23.3366 148.257 22.2939C146.942 21.206 145.174 20.6612 142.953 20.6611C139.689 20.6611 137.173 21.8402 135.405 24.1973C133.683 26.5092 132.821 29.7734 132.821 33.9893V40.79C132.821 44.8245 133.66 48.0658 135.337 50.5137C137.06 52.9616 139.599 54.1855 142.953 54.1855C146.036 54.1855 148.71 53.3241 150.977 51.6016C153.288 49.8337 154.717 47.5218 155.261 44.666H156.825C156.19 48.0205 154.603 50.6949 152.064 52.6895C149.571 54.684 146.534 55.6816 142.953 55.6816C139.689 55.6816 136.72 54.9335 134.045 53.4375C131.37 51.8962 129.239 49.7429 127.652 46.9775C126.111 44.1669 125.341 40.9709 125.341 37.3896C125.341 33.627 126.157 30.363 127.789 27.5977C129.466 24.8325 131.642 22.7471 134.316 21.3418C136.991 19.8911 139.87 19.166 142.953 19.166ZM170.96 45.8213C170.96 48.1333 171.437 49.9471 172.389 51.2617C173.341 52.5762 174.814 53.2334 176.809 53.2334C178.894 53.2333 180.888 52.5532 182.792 51.1934C184.741 49.788 186.464 48.0654 187.96 46.0254V21.8174L183.2 21.1377V19.7773H194.761V52.9619L199.521 53.6416V55.002H187.96V48.4736C186.328 50.7402 184.356 52.508 182.044 53.7773C179.777 55.0466 177.329 55.6816 174.7 55.6816C171.436 55.6816 168.852 54.8654 166.948 53.2334C165.09 51.6015 164.16 49.1764 164.16 45.958V21.8174L159.4 21.1377V19.7773H170.96V45.8213ZM212.77 26.918C213.903 24.5153 215.421 22.6334 217.325 21.2734C219.274 19.8682 221.586 19.1661 224.261 19.166C227.479 19.166 230.313 19.9134 232.761 21.4092C235.209 22.9052 237.114 25.0364 238.474 27.8018C239.834 30.5217 240.513 33.7178 240.513 37.3896C240.513 41.0616 239.834 44.2806 238.474 47.0459C237.114 49.7659 235.209 51.8962 232.761 53.4375C230.313 54.9334 227.479 55.6816 224.261 55.6816C221.586 55.6816 219.274 55.0015 217.325 53.6416C215.421 52.2363 213.903 50.3322 212.77 47.9297V55.002H201.209V53.6416L205.969 52.9619V2.6416L201.209 1.96191V0.601562H212.77V26.918ZM26.7646 0.601562C31.7513 0.601562 36.1711 1.73531 40.0244 4.00195C43.9231 6.22328 46.9607 9.39618 49.1367 13.5215C51.3127 17.6015 52.4004 22.3618 52.4004 27.8018C52.4004 33.2416 51.3126 38.0242 49.1367 42.1494C46.9607 46.2294 43.9231 49.4033 40.0244 51.6699C36.1258 53.8911 31.7058 55.002 26.7646 55.002H0.720703V53.5732L6.97656 52.5537V3.0498L0.720703 2.09766V0.601562H26.7646ZM265.104 19.166C266.826 19.166 268.345 19.6189 269.659 20.5254C270.974 21.3867 271.632 22.6336 271.632 24.2656C271.632 25.4443 271.246 26.4418 270.476 27.2578C269.705 28.0283 268.685 28.413 267.416 28.4131C265.965 28.4131 264.787 27.847 263.88 26.7139C264.378 26.0793 264.628 25.3991 264.628 24.6738C264.628 23.9032 264.355 23.2912 263.812 22.8379C263.313 22.3392 262.633 22.0898 261.771 22.0898C260.82 22.0899 259.845 22.5427 258.848 23.4492C257.85 24.3106 256.717 25.6706 255.447 27.5293V52.9619L260.888 53.6416V55.002H243.888V53.6416L248.647 52.9619V21.8174L243.888 21.1377V19.7773H255.447V25.0137C258.303 21.115 261.522 19.1661 265.104 19.166ZM284.237 52.9619L288.998 53.6416V55.002H272.678V53.6416L277.438 52.9619V21.8857L272.678 21.2051V19.8457H284.237V52.9619ZM312.122 19.166C313.845 19.166 315.363 19.6188 316.678 20.5254C317.992 21.3867 318.65 22.6336 318.65 24.2656C318.65 25.4443 318.265 26.4418 317.494 27.2578C316.723 28.0285 315.703 28.4131 314.434 28.4131C312.983 28.413 311.804 27.8471 310.897 26.7139C311.396 26.0793 311.645 25.3991 311.646 24.6738C311.646 23.9033 311.374 23.2912 310.83 22.8379C310.331 22.3392 309.651 22.0899 308.79 22.0898C307.838 22.0898 306.863 22.5428 305.866 23.4492C304.869 24.3105 303.735 25.6707 302.466 27.5293V52.9619L307.906 53.6416V55.002H290.906V53.6416L295.666 52.9619V21.8174L290.906 21.1377V19.7773H302.466V25.0137C305.322 21.115 308.541 19.166 312.122 19.166ZM223.581 20.8652C221.586 20.8652 219.774 21.4552 218.142 22.6338C216.51 23.7671 215.218 25.3085 214.266 27.2578C213.314 29.1618 212.815 31.247 212.77 33.5137V40.79C212.77 43.1018 213.222 45.2776 214.129 47.3174C215.081 49.3574 216.373 50.9899 218.005 52.2139C219.682 53.3925 221.541 53.9814 223.581 53.9814C229.882 53.9814 233.033 49.5844 233.033 40.79V33.9893C233.033 25.2401 229.882 20.8652 223.581 20.8652ZM14.457 53.3691H26.7646C30.074 53.3691 32.9984 52.599 35.5371 51.0576C38.121 49.5163 40.1383 47.2267 41.5889 44.1895C43.0395 41.1068 43.7646 37.389 43.7646 33.0371V22.5654C43.7646 18.2135 43.0395 14.5187 41.5889 11.4814C40.1382 8.4442 38.121 6.15461 35.5371 4.61328C32.9984 3.07195 30.074 2.30176 26.7646 2.30176H14.457V53.3691ZM75.0801 20.6611C72.0428 20.6611 69.6851 21.7268 68.0078 23.8574C66.3305 25.9881 65.378 28.8215 65.1514 32.3574H82.6279C82.6279 28.4137 82.0158 25.4899 80.792 23.5859C79.568 21.6367 77.6639 20.6612 75.0801 20.6611ZM279.886 2.8457C281.11 2.84572 282.152 3.27638 283.014 4.1377C283.875 4.99902 284.306 6.06468 284.306 7.33398C284.306 8.60314 283.875 9.69109 283.014 10.5977C282.152 11.4589 281.11 11.8896 279.886 11.8896C278.617 11.8896 277.529 11.4588 276.622 10.5977C275.716 9.69109 275.262 8.60314 275.262 7.33398C275.262 6.06468 275.692 4.99902 276.554 4.1377C277.46 3.27636 278.571 2.8457 279.886 2.8457Z" fill="black"/>
<path d="M329.26 51.6038C329.26 47.3611 330.394 42.9458 332.664 38.3577C334.933 33.7204 337.819 29.5518 341.322 25.8518C344.824 22.1518 348.574 18.7724 352.57 15.7137C356.566 12.6551 360.389 10.2871 364.04 8.60975C367.74 6.93242 370.749 6.09375 373.068 6.09375C373.956 6.09375 374.918 6.43908 375.954 7.12975C377.039 7.82042 377.582 8.63442 377.582 9.57175C377.582 10.4597 376.669 12.1617 374.844 14.6777C373.018 17.1444 370.798 19.9564 368.184 23.1138C365.618 26.2711 363.028 29.5271 360.414 32.8818C357.799 36.2364 355.579 39.5418 353.754 42.7978C351.928 46.0538 351.016 48.6931 351.016 50.7158C351.016 51.5051 351.41 51.8998 352.2 51.8998C353.68 51.8998 355.949 50.4198 359.008 47.4598C362.066 44.4504 365.446 40.8244 369.146 36.5818C372.895 32.2898 376.768 28.0224 380.764 23.7798C384.809 19.4878 388.953 15.8618 393.196 12.9018C397.488 9.89242 401.262 8.38775 404.518 8.38775C405.455 8.38775 406.442 8.65908 407.478 9.20175C408.514 9.69508 409.032 10.2624 409.032 10.9037C409.032 11.4958 408.76 11.9644 408.218 12.3097C407.675 12.6551 406.738 13.1484 405.406 13.7898C404.123 14.4311 402.569 15.2698 400.744 16.3058C398.918 17.2924 396.526 18.8711 393.566 21.0418C390.606 23.1631 387.399 25.6791 383.946 28.5898C375.707 35.5458 366.309 44.9684 355.752 56.8578C351.509 61.5938 345.786 63.9618 338.584 63.9618H338.51C336.339 63.9618 334.267 62.6051 332.294 59.8918C330.37 57.1291 329.358 54.3664 329.26 51.6038Z" fill="#92D63B"/>
<path d="M364.371 61.8158C363.631 61.1251 363.261 60.2371 363.261 59.1518C363.261 55.6984 365.308 51.7764 369.403 47.3858C373.547 42.9951 377.395 40.4791 380.947 39.8378C383.167 39.8378 384.277 41.1451 384.277 43.7598C384.277 44.5984 383.167 46.5718 380.947 49.6798C378.727 52.7878 376.186 55.7724 373.325 58.6338C370.464 61.4951 368.441 62.9258 367.257 62.9258C366.073 62.9258 365.111 62.5558 364.371 61.8158ZM385.609 37.4698C387.977 37.2231 389.926 36.2118 391.455 34.4358C392.984 32.6104 393.749 31.0564 393.749 29.7738C393.749 27.7511 392.738 26.7398 390.715 26.7398C389.334 26.7398 387.706 27.3564 385.831 28.5898C383.956 29.8231 382.896 31.6238 382.649 33.9918L382.723 34.8058C382.822 35.3978 383.118 35.9898 383.611 36.5818C384.104 37.1738 384.77 37.4698 385.609 37.4698Z" fill="#92D63B"/>
<path d="M396.749 55.9698C396.749 55.7724 396.626 55.6738 396.379 55.6738C396.182 55.6738 394.899 56.3398 392.531 57.6718C390.212 58.9544 388.362 59.5958 386.981 59.5958C385.6 59.5958 384.514 59.1024 383.725 58.1158C382.936 57.1291 382.541 56.0931 382.541 55.0078C382.541 51.8011 383.922 48.6438 386.685 45.5358C389.497 42.4278 392.654 40.0104 396.157 38.2838C399.66 36.5571 402.718 35.6938 405.333 35.6938C406.961 35.6938 408.194 35.8911 409.033 36.2858C409.872 36.6804 410.34 36.8778 410.439 36.8778H410.587C410.686 36.8778 410.735 36.8531 410.735 36.8038C415.126 31.4758 420.429 25.7284 426.645 19.5618C432.91 13.3458 436.98 10.2377 438.855 10.2377C439.644 10.3364 440.36 10.9778 441.001 12.1618C441.692 13.3458 442.062 14.6284 442.111 16.0098C441.815 17.0951 437.696 21.7078 429.753 29.8478C421.81 37.9384 417.346 42.6991 416.359 44.1298C415.422 45.5604 412.881 49.1124 408.737 54.7858C404.593 60.4591 402.274 63.5178 401.781 63.9618C401.288 64.4551 400.646 64.7018 399.857 64.7018C399.068 64.7018 398.204 64.2084 397.267 63.2218C396.33 62.2844 395.861 61.3471 395.861 60.4098C395.861 59.4724 396.009 58.4858 396.305 57.4498L396.749 55.9698ZM404.001 43.6118C402.916 43.6118 401.016 44.8204 398.303 47.2378C395.639 49.6551 394.307 51.2584 394.307 52.0478C394.307 52.4918 394.504 52.7138 394.899 52.7138C396.231 52.7138 398.204 51.4558 400.819 48.9398C403.434 46.3744 404.741 44.7711 404.741 44.1298C404.741 43.7844 404.494 43.6118 404.001 43.6118Z" fill="#92D63B"/>
<path d="M436.205 58.0418C436.205 58.2884 436.378 58.4611 436.723 58.5598C437.069 58.5598 438.253 57.8691 440.275 56.4878C442.347 55.0571 443.507 54.2678 443.753 54.1198C444.049 53.9718 444.321 53.8978 444.567 53.8978C445.258 53.8978 445.603 54.2431 445.603 54.9338C445.603 55.5751 443.852 57.0304 440.349 59.2998C436.896 61.5691 434.454 62.7038 433.023 62.7038C432.431 62.7038 431.79 62.4571 431.099 61.9638C430.458 61.4704 430.137 60.9031 430.137 60.2618C430.137 59.5711 430.31 58.8311 430.655 58.0418C431.001 57.2524 431.173 56.7344 431.173 56.4878C431.173 56.1918 431.099 56.0438 430.951 56.0438C430.803 56.0438 430.655 56.0931 430.507 56.1918C425.722 59.7931 422.195 61.5938 419.925 61.5938C418.643 61.5938 417.631 61.1251 416.891 60.1878C416.151 59.2504 415.707 58.3131 415.559 57.3758L415.411 55.9698C415.411 54.3418 416.028 52.4671 417.261 50.3458C418.544 48.1751 420.197 46.1278 422.219 44.2038C424.291 42.2304 426.807 40.5778 429.767 39.2458C432.777 37.9138 435.835 37.2478 438.943 37.2478C440.621 37.2478 442.175 37.6918 443.605 38.5798C445.085 39.4678 445.825 40.5038 445.825 41.6878C445.825 42.8718 444.666 43.5871 442.347 43.8338C440.621 44.2284 437.759 45.6591 433.763 48.1258C429.817 50.5431 427.843 52.3931 427.843 53.6758C427.843 54.2184 428.115 54.4898 428.657 54.4898C429.644 54.4898 431.963 53.0838 435.613 50.2718C439.313 47.4598 441.533 46.0538 442.273 46.0538C443.013 46.0538 443.383 46.4978 443.383 47.3858C443.383 48.0271 443.137 48.6438 442.643 49.2358C442.199 49.7784 441.879 50.1731 441.681 50.4198C441.287 50.9131 440.275 52.0231 438.647 53.7498C437.019 55.4271 436.205 56.8578 436.205 58.0418Z" fill="#92D63B"/>
<path d="M484.479 58.0418C484.479 58.2884 484.651 58.4611 484.997 58.5598C485.342 58.5598 486.526 57.8691 488.549 56.4878C490.621 55.0571 491.78 54.2678 492.027 54.1198C492.323 53.9718 492.594 53.8978 492.841 53.8978C493.531 53.8978 493.877 54.2431 493.877 54.9338C493.877 55.5751 492.125 57.0304 488.623 59.2998C485.169 61.5691 482.727 62.7038 481.297 62.7038C480.705 62.7038 480.063 62.4571 479.373 61.9638C478.731 61.4704 478.411 60.9031 478.411 60.2618C478.411 59.5711 478.583 58.8311 478.929 58.0418C479.274 57.2524 479.447 56.7344 479.447 56.4878C479.447 56.1918 479.373 56.0438 479.225 56.0438C479.077 56.0438 478.929 56.0931 478.781 56.1918C473.995 59.7931 470.468 61.5938 468.199 61.5938C466.916 61.5938 465.905 61.1251 465.165 60.1878C464.425 59.2504 463.981 58.3131 463.833 57.3758L463.685 55.9698C463.685 54.3418 464.301 52.4671 465.535 50.3458C466.817 48.1751 468.47 46.1278 470.493 44.2038C472.565 42.2304 475.081 40.5778 478.041 39.2458C481.05 37.9138 484.109 37.2478 487.217 37.2478C488.894 37.2478 490.448 37.6918 491.879 38.5798C493.359 39.4678 494.099 40.5038 494.099 41.6878C494.099 42.8718 492.939 43.5871 490.621 43.8338C488.894 44.2284 486.033 45.6591 482.037 48.1258C478.09 50.5431 476.117 52.3931 476.117 53.6758C476.117 54.2184 476.388 54.4898 476.931 54.4898C477.917 54.4898 480.236 53.0838 483.887 50.2718C487.587 47.4598 489.807 46.0538 490.547 46.0538C491.287 46.0538 491.657 46.4978 491.657 47.3858C491.657 48.0271 491.41 48.6438 490.917 49.2358C490.473 49.7784 490.152 50.1731 489.955 50.4198C489.56 50.9131 488.549 52.0231 486.921 53.7498C485.293 55.4271 484.479 56.8578 484.479 58.0418Z" fill="#92D63B"/>
<path d="M522.392 49.3098C522.343 49.8031 520.74 51.1104 517.582 53.2318C514.425 55.3038 510.774 57.3264 506.63 59.2998C502.486 61.2731 499.502 62.2598 497.676 62.2598C495.9 62.2598 494.371 61.7171 493.088 60.6318C491.806 59.4971 491.164 58.2144 491.164 56.7838C491.164 53.8238 492.472 50.7898 495.086 47.6818C497.75 44.5244 500.809 41.9838 504.262 40.0598C507.765 38.0864 510.725 37.0998 513.142 37.0998C515.609 37.0998 517.459 37.4204 518.692 38.0618C519.926 38.6538 520.542 39.7884 520.542 41.4658C520.542 43.1431 519.457 45.0918 517.286 47.3118C515.165 49.4824 513.34 50.5678 511.81 50.5678C510.824 50.5678 510.33 50.2718 510.33 49.6798C510.33 49.2851 510.577 48.9398 511.07 48.6438C511.613 48.3478 512.476 47.6571 513.66 46.5718C514.844 45.4864 515.436 44.7464 515.436 44.3518C515.436 44.2038 515.288 44.1298 514.992 44.1298C513.266 44.1298 510.824 45.7084 507.666 48.8658C504.509 52.0231 502.93 54.3911 502.93 55.9698C502.93 56.7591 503.35 57.1538 504.188 57.1538C505.076 57.1538 506.482 56.6604 508.406 55.6738C510.33 54.6378 512.698 53.2564 515.51 51.5298C518.322 49.8031 519.926 48.8411 520.32 48.6438C520.764 48.3971 521.11 48.2738 521.356 48.2738C522.047 48.2738 522.392 48.6191 522.392 49.3098Z" fill="#92D63B"/>
<path d="M540.084 43.4638C540.084 44.7958 540.873 45.4618 542.452 45.4618C543.932 45.4618 545.56 45.0918 547.336 44.3518C549.112 43.6118 550.074 43.2418 550.222 43.2418C550.37 43.2418 550.518 43.3651 550.666 43.6118C550.863 43.8584 550.962 44.1051 550.962 44.3518C550.962 44.8944 549.803 45.6098 547.484 46.4978C545.215 47.3364 543.562 47.7558 542.526 47.7558C541.49 47.7558 540.75 47.7558 540.306 47.7558C539.911 47.7064 539.591 47.9531 539.344 48.4958C535.693 55.3531 532.067 59.6698 528.466 61.4458C526.887 62.2351 525.21 62.6298 523.434 62.6298C521.707 62.6298 520.277 62.0624 519.142 60.9278C518.057 59.7438 517.514 57.8938 517.514 55.3778C517.514 51.8751 518.649 48.6191 520.918 45.6098C523.237 42.5511 525.851 40.2571 528.762 38.7278C531.673 37.1984 534.312 36.4338 536.68 36.4338C540.676 36.8778 542.674 38.0864 542.674 40.0598C542.674 40.6024 542.526 41.0958 542.23 41.5398C541.983 41.9344 541.761 42.1811 541.564 42.2798C541.416 42.3291 541.219 42.3784 540.972 42.4278C540.38 42.5758 540.084 42.9211 540.084 43.4638ZM534.016 46.8678C532.437 48.0518 530.883 49.5564 529.354 51.3818C527.874 53.2071 527.134 54.7118 527.134 55.8958C527.134 57.0304 527.455 57.5978 528.096 57.5978C529.083 57.5978 530.883 56.0931 533.498 53.0838C536.162 50.0251 537.494 47.5091 537.494 45.5358C537.494 45.2398 537.297 45.0918 536.902 45.0918C536.557 45.0918 535.595 45.6838 534.016 46.8678Z" fill="#92D63B"/>
<path d="M555.327 56.5618C552.367 58.3871 549.974 59.2998 548.149 59.2998C546.324 59.2998 544.942 58.6584 544.005 57.3758C543.068 56.0931 542.599 54.9338 542.599 53.8978C542.599 52.8618 542.92 51.6778 543.561 50.3458C544.202 49.0138 545.189 47.5338 546.521 45.9058C547.902 44.2778 549.481 42.7484 551.257 41.3178C553.033 39.8871 555.204 38.7031 557.769 37.7658C560.384 36.7791 563.097 36.2858 565.909 36.2858C567.093 36.2858 568.45 36.7298 569.979 37.6178C571.508 38.4564 572.273 39.4924 572.273 40.7257C572.273 41.5644 571.582 42.1564 570.201 42.5018C566.452 43.5378 562.752 45.1411 559.101 47.3118C555.5 49.4331 553.699 51.4064 553.699 53.2318C553.699 53.7251 553.921 53.9718 554.365 53.9718C555.944 53.9718 558.805 52.2698 562.949 48.8658C567.142 45.4618 569.313 43.7598 569.461 43.7598C570.152 43.7598 570.497 44.2284 570.497 45.1658C570.497 47.3364 569.387 50.7404 567.167 55.3778C564.947 60.0151 562.209 64.7018 558.953 69.4378C555.746 74.2231 552.022 78.4164 547.779 82.0178C543.536 85.6191 539.639 87.4198 536.087 87.4198C535.544 87.4198 534.903 86.8524 534.163 85.7178C533.374 84.6324 532.979 83.7444 532.979 83.0538C532.979 82.3631 533.004 81.9438 533.053 81.7958C533.546 80.0198 536.728 76.9858 542.599 72.6938C545.016 70.9671 547.409 69.1664 549.777 67.2918C552.145 65.4664 554.143 63.4931 555.771 61.3718C557.399 59.2998 558.213 57.3511 558.213 55.5258C558.213 55.4271 558.04 55.3778 557.695 55.3778C557.35 55.3778 556.56 55.7724 555.327 56.5618Z" fill="#92D63B"/>
<path d="M583.11 46.6458L586.736 46.2758C588.413 46.2758 589.252 47.1144 589.252 48.7918C589.252 49.6798 588.438 50.6664 586.81 51.7518C585.182 52.8371 583.529 53.8484 581.852 54.7858C580.224 55.6738 579.41 56.3644 579.41 56.8578C579.41 57.2031 579.804 57.4251 580.594 57.5238C582.32 57.5238 585.601 56.1424 590.436 53.3798C595.27 50.6171 597.861 49.2358 598.206 49.2358C598.897 49.2358 599.242 49.5811 599.242 50.2718C599.192 50.7651 597.614 51.9984 594.506 53.9718C591.447 55.8958 587.846 57.7704 583.702 59.5958C579.607 61.3718 576.474 62.2598 574.304 62.2598C570.9 62.2598 569.198 60.4591 569.198 56.8578C569.198 55.8218 569.888 54.6871 571.27 53.4538C572.7 52.2204 574.106 51.1598 575.488 50.2718C576.918 49.3838 577.634 48.8411 577.634 48.6438C577.634 48.3971 577.288 48.1258 576.598 47.8298C574.526 46.9418 573.49 45.7578 573.49 44.2778C573.49 41.5151 575.784 38.9004 580.372 36.4338C585.009 33.9178 589.301 32.6598 593.248 32.6598C595.418 32.6598 597.219 33.0791 598.65 33.9178C600.081 34.7071 600.796 35.9404 600.796 37.6178C600.796 39.2458 599.637 40.7751 597.318 42.2058C595.049 43.6364 593.421 44.3518 592.434 44.3518C592.039 44.3518 591.669 44.2531 591.324 44.0558C591.028 43.8584 590.88 43.6364 590.88 43.3898C590.88 43.1431 591.546 42.7484 592.878 42.2058C594.259 41.6138 594.95 41.0711 594.95 40.5778C594.95 40.3311 594.58 40.2078 593.84 40.2078C593.149 40.2078 590.83 40.9971 586.884 42.5758C582.937 44.1051 580.964 45.1904 580.964 45.8318C580.964 46.3744 581.679 46.6458 583.11 46.6458Z" fill="#92D63B"/>
<path d="M610.149 55.9698C610.149 55.7724 610.026 55.6738 609.779 55.6738C609.582 55.6738 608.299 56.3398 605.931 57.6718C603.613 58.9544 601.763 59.5958 600.381 59.5958C599 59.5958 597.915 59.1024 597.125 58.1158C596.336 57.1291 595.941 56.0931 595.941 55.0078C595.941 51.8011 597.323 48.6438 600.085 45.5358C602.897 42.4278 606.055 40.0104 609.557 38.2838C613.06 36.5571 616.119 35.6938 618.733 35.6938C620.361 35.6938 621.595 35.8911 622.433 36.2858C623.272 36.6804 623.741 36.8778 623.839 36.8778H623.987C624.086 36.8778 624.135 36.8531 624.135 36.8038C628.526 31.4758 633.829 25.7284 640.045 19.5618C646.311 13.3458 650.381 10.2377 652.255 10.2377C653.045 10.3364 653.76 10.9778 654.401 12.1618C655.092 13.3458 655.462 14.6284 655.511 16.0098C655.215 17.0951 651.096 21.7078 643.153 29.8478C635.211 37.9384 630.746 42.6991 629.759 44.1298C628.822 45.5604 626.281 49.1124 622.137 54.7858C617.993 60.4591 615.675 63.5178 615.181 63.9618C614.688 64.4551 614.047 64.7018 613.257 64.7018C612.468 64.7018 611.605 64.2084 610.667 63.2218C609.73 62.2844 609.261 61.3471 609.261 60.4098C609.261 59.4724 609.409 58.4858 609.705 57.4498L610.149 55.9698ZM617.401 43.6118C616.316 43.6118 614.417 44.8204 611.703 47.2378C609.039 49.6551 607.707 51.2584 607.707 52.0478C607.707 52.4918 607.905 52.7138 608.299 52.7138C609.631 52.7138 611.605 51.4558 614.219 48.9398C616.834 46.3744 618.141 44.7711 618.141 44.1298C618.141 43.7844 617.895 43.6118 617.401 43.6118Z" fill="#92D63B"/>
<path d="M651.012 43.4638C651.012 44.7958 651.801 45.4618 653.38 45.4618C654.86 45.4618 656.488 45.0918 658.264 44.3518C660.04 43.6118 661.002 43.2418 661.15 43.2418C661.298 43.2418 661.446 43.3651 661.594 43.6118C661.791 43.8584 661.89 44.1051 661.89 44.3518C661.89 44.8944 660.73 45.6098 658.412 46.4978C656.142 47.3364 654.49 47.7558 653.454 47.7558C652.418 47.7558 651.678 47.7558 651.234 47.7558C650.839 47.7064 650.518 47.9531 650.272 48.4958C646.621 55.3531 642.995 59.6698 639.394 61.4458C637.815 62.2351 636.138 62.6298 634.362 62.6298C632.635 62.6298 631.204 62.0624 630.07 60.9278C628.984 59.7438 628.442 57.8938 628.442 55.3778C628.442 51.8751 629.576 48.6191 631.846 45.6098C634.164 42.5511 636.779 40.2571 639.69 38.7278C642.6 37.1984 645.24 36.4338 647.608 36.4338C651.604 36.8778 653.602 38.0864 653.602 40.0598C653.602 40.6024 653.454 41.0958 653.158 41.5398C652.911 41.9344 652.689 42.1811 652.492 42.2798C652.344 42.3291 652.146 42.3784 651.9 42.4278C651.308 42.5758 651.012 42.9211 651.012 43.4638ZM644.944 46.8678C643.365 48.0518 641.811 49.5564 640.282 51.3818C638.802 53.2071 638.062 54.7118 638.062 55.8958C638.062 57.0304 638.382 57.5978 639.024 57.5978C640.01 57.5978 641.811 56.0931 644.426 53.0838C647.09 50.0251 648.422 47.5091 648.422 45.5358C648.422 45.2398 648.224 45.0918 647.83 45.0918C647.484 45.0918 646.522 45.6838 644.944 46.8678Z" fill="#92D63B"/>
<path d="M668.623 33.3998C668.968 33.3998 669.289 33.5724 669.585 33.9178C669.881 34.2138 670.029 34.5838 670.029 35.0278C670.029 35.4224 669.782 35.9404 669.289 36.5818C667.365 38.9498 666.082 40.4544 665.441 41.0958C664.849 41.6878 664.553 42.0824 664.553 42.2798C664.553 42.4771 664.701 42.5758 664.997 42.5758C665.342 42.5758 666.674 42.1564 668.993 41.3178C671.311 40.4298 672.841 39.9858 673.581 39.9858C674.321 39.9858 675.085 40.3064 675.875 40.9478C676.664 41.5398 677.059 42.3291 677.059 43.3158C677.059 44.2531 675.554 46.4484 672.545 49.9018C669.535 53.3058 668.031 55.5258 668.031 56.5618C668.031 56.7591 668.105 56.8578 668.253 56.8578C668.499 56.8578 668.943 56.7098 669.585 56.4138C670.226 56.0684 670.621 55.8958 670.769 55.8958C671.311 55.8958 671.583 56.0931 671.583 56.4878C671.583 58.0171 670.374 59.5464 667.957 61.0758C665.539 62.6051 663.492 63.3698 661.815 63.3698C660.187 63.3698 658.855 62.9011 657.819 61.9638C656.783 61.0758 656.265 59.8671 656.265 58.3378C656.265 56.8084 657.005 55.1064 658.485 53.2318C660.014 51.3078 661.568 49.9511 663.147 49.1618C664.775 48.3724 665.589 47.7311 665.589 47.2378C665.589 47.0898 665.564 46.9911 665.515 46.9418C663.344 47.8298 661.568 48.2738 660.187 48.2738C657.473 48.2738 656.117 47.4844 656.117 45.9058C656.117 44.0804 657.695 41.6878 660.853 38.7278C664.01 35.7678 666.6 33.9918 668.623 33.3998Z" fill="#92D63B"/>
<path d="M696.145 58.0418C696.145 58.2884 696.318 58.4611 696.663 58.5598C697.008 58.5598 698.192 57.8691 700.215 56.4878C702.287 55.0571 703.446 54.2678 703.693 54.1198C703.989 53.9718 704.26 53.8978 704.507 53.8978C705.198 53.8978 705.543 54.2431 705.543 54.9338C705.543 55.5751 703.791 57.0304 700.289 59.2998C696.835 61.5691 694.393 62.7038 692.963 62.7038C692.371 62.7038 691.729 62.4571 691.039 61.9638C690.397 61.4704 690.077 60.9031 690.077 60.2618C690.077 59.5711 690.249 58.8311 690.595 58.0418C690.94 57.2524 691.113 56.7344 691.113 56.4878C691.113 56.1918 691.039 56.0438 690.891 56.0438C690.743 56.0438 690.595 56.0931 690.447 56.1918C685.662 59.7931 682.134 61.5938 679.865 61.5938C678.582 61.5938 677.571 61.1251 676.831 60.1878C676.091 59.2504 675.647 58.3131 675.499 57.3758L675.351 55.9698C675.351 54.3418 675.968 52.4671 677.201 50.3458C678.484 48.1751 680.136 46.1278 682.159 44.2038C684.231 42.2304 686.747 40.5778 689.707 39.2458C692.716 37.9138 695.775 37.2478 698.883 37.2478C700.56 37.2478 702.114 37.6918 703.545 38.5798C705.025 39.4678 705.765 40.5038 705.765 41.6878C705.765 42.8718 704.606 43.5871 702.287 43.8338C700.56 44.2284 697.699 45.6591 693.703 48.1258C689.756 50.5431 687.783 52.3931 687.783 53.6758C687.783 54.2184 688.054 54.4898 688.597 54.4898C689.583 54.4898 691.902 53.0838 695.553 50.2718C699.253 47.4598 701.473 46.0538 702.213 46.0538C702.953 46.0538 703.323 46.4978 703.323 47.3858C703.323 48.0271 703.076 48.6438 702.583 49.2358C702.139 49.7784 701.818 50.1731 701.621 50.4198C701.226 50.9131 700.215 52.0231 698.587 53.7498C696.959 55.4271 696.145 56.8578 696.145 58.0418Z" fill="#92D63B"/>
</svg>
