<svg width="705" height="132" viewBox="0 0 705 132" fill="none" xmlns="http://www.w3.org/2000/svg">
<path d="M4.72027 53.5736L10.9763 52.5536V3.04956L4.72027 2.09756V0.601562H30.7643C35.7509 0.601562 40.1709 1.73489 44.0243 4.00156C47.9229 6.22289 50.9603 9.39623 53.1363 13.5216C55.3123 17.6016 56.4003 22.3616 56.4003 27.8016C56.4003 33.2416 55.3123 38.0242 53.1363 42.1496C50.9603 46.2296 47.9229 49.4029 44.0243 51.6696C40.1256 53.8909 35.7056 55.0016 30.7643 55.0016H4.72027V53.5736ZM30.7643 53.3696C34.0736 53.3696 36.9976 52.5989 39.5363 51.0576C42.1203 49.5162 44.1376 47.2269 45.5883 44.1896C47.0389 41.1069 47.7643 37.3896 47.7643 33.0376V22.5656C47.7643 18.2136 47.0389 14.5189 45.5883 11.4816C44.1376 8.44423 42.1203 6.15489 39.5363 4.61356C36.9976 3.07223 34.0736 2.30156 30.7643 2.30156H18.4563V53.3696H30.7643Z" fill="black"/>
<path d="M67.7913 11.8896C66.522 11.8896 65.434 11.4589 64.5273 10.5976C63.6207 9.69089 63.1673 8.60289 63.1673 7.33356C63.1673 6.06423 63.598 4.99889 64.4593 4.13756C65.366 3.27623 66.4767 2.84556 67.7913 2.84556C69.0153 2.84556 70.058 3.27623 70.9193 4.13756C71.7807 4.99889 72.2113 6.06423 72.2113 7.33356C72.2113 8.60289 71.7807 9.69089 70.9193 10.5976C70.058 11.4589 69.0153 11.8896 67.7913 11.8896ZM60.5833 55.0016V53.6416L65.3433 52.9616V21.8856L60.5833 21.2056V19.8456H72.1433V52.9616L76.9033 53.6416V55.0016H60.5833Z" fill="black"/>
<path d="M93.2956 55.6816C89.5782 55.6816 86.4729 54.8882 83.9796 53.3016C81.4862 51.7149 80.2396 49.6522 80.2396 47.1136C80.2396 45.7989 80.5796 44.7789 81.2596 44.0536C81.9849 43.2829 82.9369 42.8976 84.1156 42.8976C85.0222 42.8976 85.7929 43.1242 86.4276 43.5776C87.0622 44.0309 87.5156 44.6656 87.7876 45.4816C86.7902 46.5696 86.2916 47.7256 86.2916 48.9496C86.2916 50.3549 86.9262 51.5789 88.1956 52.6216C89.4649 53.6642 91.1649 54.1856 93.2956 54.1856C96.1516 54.1856 98.4862 53.5509 100.3 52.2816C102.113 50.9669 103.02 49.2216 103.02 47.0456C103.02 45.7762 102.634 44.8242 101.864 44.1896C101.093 43.5549 99.5969 42.8296 97.3756 42.0136L87.1076 38.2736C83.0729 36.8229 81.0556 34.1256 81.0556 30.1816C81.0556 26.9629 82.1662 24.3336 84.3876 22.2936C86.6089 20.2082 89.6689 19.1656 93.5676 19.1656C96.7862 19.1656 99.5289 19.9136 101.796 21.4096C104.108 22.8602 105.264 24.9456 105.264 27.6656C105.264 28.7536 104.969 29.6376 104.38 30.3176C103.79 30.9522 103.02 31.2696 102.068 31.2696C101.116 31.2696 100.322 31.0202 99.6876 30.5216C99.0982 29.9776 98.8036 29.2522 98.8036 28.3456C99.3929 27.8922 99.8009 27.4162 100.028 26.9176C100.254 26.3736 100.368 25.7389 100.368 25.0136C100.368 23.7442 99.8009 22.7016 98.6676 21.8856C97.5796 21.0696 95.8796 20.6616 93.5676 20.6616C91.5729 20.6616 89.8502 20.9789 88.3996 21.6136C86.9942 22.2029 85.9289 22.9962 85.2036 23.9936C84.4782 24.9909 84.1156 26.0109 84.1156 27.0536C84.1156 28.1416 84.5009 29.0029 85.2716 29.6376C86.0876 30.2722 87.5609 30.9749 89.6916 31.7456L99.2116 35.1456C101.433 35.9616 103.11 37.0949 104.244 38.5456C105.377 39.9962 105.944 41.8776 105.944 44.1896C105.944 47.4989 104.901 50.2416 102.816 52.4176C100.73 54.5936 97.5569 55.6816 93.2956 55.6816Z" fill="black"/>
<path d="M128.491 55.6816C125.227 55.6816 122.258 54.9336 119.583 53.4376C116.909 51.8962 114.778 49.7429 113.191 46.9776C111.65 44.1669 110.879 40.9709 110.879 37.3896C110.879 33.6269 111.695 30.3629 113.327 27.5976C115.005 24.8322 117.181 22.7469 119.855 21.3416C122.53 19.8909 125.409 19.1656 128.491 19.1656C131.075 19.1656 133.433 19.6189 135.563 20.5256C137.694 21.3869 139.371 22.6109 140.595 24.1976C141.865 25.7842 142.499 27.5749 142.499 29.5696C142.499 31.0656 142.114 32.2216 141.343 33.0376C140.573 33.8082 139.553 34.1936 138.283 34.1936C137.059 34.1936 136.039 33.7856 135.223 32.9696C134.407 32.1536 133.999 31.1336 133.999 29.9096C134.679 29.4562 135.155 28.9576 135.427 28.4136C135.699 27.8696 135.835 27.1896 135.835 26.3736C135.835 24.6962 135.155 23.3362 133.795 22.2936C132.481 21.2056 130.713 20.6616 128.491 20.6616C125.227 20.6616 122.711 21.8402 120.943 24.1976C119.221 26.5096 118.359 29.7736 118.359 33.9896V40.7896C118.359 44.8242 119.198 48.0656 120.875 50.5136C122.598 52.9616 125.137 54.1856 128.491 54.1856C131.574 54.1856 134.249 53.3242 136.515 51.6016C138.827 49.8336 140.255 47.5216 140.799 44.6656H142.363C141.729 48.0202 140.142 50.6949 137.603 52.6896C135.11 54.6842 132.073 55.6816 128.491 55.6816Z" fill="black"/>
<path d="M164.319 55.6816C161.055 55.6816 158.086 54.9336 155.411 53.4376C152.736 51.8962 150.606 49.7429 149.019 46.9776C147.478 44.1669 146.707 40.9709 146.707 37.3896C146.707 33.8082 147.478 30.6349 149.019 27.8696C150.606 25.1042 152.736 22.9736 155.411 21.4776C158.086 19.9362 161.055 19.1656 164.319 19.1656C167.583 19.1656 170.552 19.9362 173.227 21.4776C175.902 22.9736 178.01 25.1042 179.551 27.8696C181.138 30.6349 181.931 33.8082 181.931 37.3896C181.931 40.9709 181.138 44.1669 179.551 46.9776C178.01 49.7429 175.902 51.8962 173.227 53.4376C170.552 54.9336 167.583 55.6816 164.319 55.6816ZM164.319 54.1856C167.674 54.1856 170.19 52.9616 171.867 50.5136C173.59 48.0656 174.451 44.8242 174.451 40.7896V33.9896C174.451 29.9549 173.59 26.7362 171.867 24.3336C170.19 21.8856 167.674 20.6616 164.319 20.6616C160.964 20.6616 158.426 21.8856 156.703 24.3336C155.026 26.7362 154.187 29.9549 154.187 33.9896V40.7896C154.187 44.8242 155.026 48.0656 156.703 50.5136C158.426 52.9616 160.964 54.1856 164.319 54.1856Z" fill="black"/>
<path d="M200.154 56.3616L185.602 21.8176L181.182 21.1376V19.7776H198.114V21.1376L193.218 22.0216L203.486 47.5896L212.666 22.9056L206.682 21.2056V19.8456H218.854V21.2056L214.57 22.8376L202.058 56.3616H200.154Z" fill="black"/>
<path d="M236.38 55.6816C233.026 55.6816 229.988 54.9336 227.268 53.4376C224.548 51.8962 222.395 49.7429 220.808 46.9776C219.222 44.2122 218.428 41.0162 218.428 37.3896C218.428 33.7629 219.199 30.5896 220.74 27.8696C222.327 25.1042 224.435 22.9736 227.064 21.4776C229.739 19.9362 232.708 19.1656 235.972 19.1656C238.828 19.1656 241.39 19.8002 243.656 21.0696C245.923 22.3389 247.691 24.1069 248.96 26.3736C250.23 28.5949 250.887 31.1562 250.932 34.0576H225.908V40.7896C225.908 44.7789 226.792 48.0202 228.56 50.5136C230.374 52.9616 232.98 54.1856 236.38 54.1856C239.508 54.1856 242.274 53.3016 244.676 51.5336C247.079 49.7656 248.552 47.4762 249.096 44.6656H250.66C250.026 48.0202 248.416 50.6949 245.832 52.6896C243.248 54.6842 240.098 55.6816 236.38 55.6816ZM243.452 32.3576C243.452 28.4136 242.84 25.4896 241.616 23.5856C240.392 21.6362 238.488 20.6616 235.904 20.6616C232.867 20.6616 230.51 21.7269 228.832 23.8576C227.155 25.9882 226.203 28.8216 225.976 32.3576H243.452Z" fill="black"/>
<path d="M254.098 53.6416L258.858 52.9616V21.8176L254.098 21.1376V19.7776H265.658V25.0136C268.514 21.1149 271.732 19.1656 275.314 19.1656C277.036 19.1656 278.555 19.6189 279.87 20.5256C281.184 21.3869 281.842 22.6336 281.842 24.2656C281.842 25.4442 281.456 26.4416 280.686 27.2576C279.915 28.0282 278.895 28.4136 277.626 28.4136C276.175 28.4136 274.996 27.8469 274.09 26.7136C274.588 26.0789 274.838 25.3989 274.838 24.6736C274.838 23.9029 274.566 23.2909 274.022 22.8376C273.523 22.3389 272.843 22.0896 271.982 22.0896C271.03 22.0896 270.055 22.5429 269.058 23.4496C268.06 24.3109 266.927 25.6709 265.658 27.5296V52.9616L271.098 53.6416V55.0016H254.098V53.6416Z" fill="black"/>
<path d="M24.3043 131.362L5.12827 78.0496L0.572266 77.0976V75.6016H19.4763V77.0976L13.2883 78.0496L27.9083 118.306L37.8363 92.3296L32.7363 78.0496L26.4803 77.0976V75.6016H46.6763V77.0976L40.8283 77.9136L55.5843 118.238L70.2043 80.1576L62.5203 77.0976V75.6016H77.1403V77.0976L71.9723 80.0896L52.5243 131.362H51.9803L38.7203 94.7096L24.8483 131.362H24.3043Z" fill="black"/>
<path d="M83.264 86.8896C81.9947 86.8896 80.9067 86.4589 80 85.5976C79.0933 84.6909 78.64 83.6029 78.64 82.3336C78.64 81.0642 79.0707 79.9989 79.932 79.1376C80.8387 78.2762 81.9493 77.8456 83.264 77.8456C84.488 77.8456 85.5306 78.2762 86.392 79.1376C87.2533 79.9989 87.684 81.0642 87.684 82.3336C87.684 83.6029 87.2533 84.6909 86.392 85.5976C85.5306 86.4589 84.488 86.8896 83.264 86.8896ZM76.056 130.002V128.642L80.816 127.962V96.8856L76.056 96.2056V94.8456H87.616V127.962L92.376 128.642V130.002H76.056Z" fill="black"/>
<path d="M108.36 130.682C105.368 130.682 102.966 129.934 101.152 128.438C99.3842 126.942 98.5002 124.562 98.5002 121.298V96.8176L93.6722 96.1376V94.7776H98.5002V89.1336L105.3 87.4336V94.7776H114.14V96.1376L105.3 96.8176V121.162C105.3 125.967 107.023 128.37 110.468 128.37C111.194 128.37 111.874 128.256 112.508 128.03C113.188 127.803 113.71 127.576 114.072 127.35C114.48 127.123 114.73 126.964 114.82 126.874L115.704 127.962C113.664 129.775 111.216 130.682 108.36 130.682Z" fill="black"/>
<path d="M116.09 128.642L120.85 127.962V77.6416L116.09 76.9616V75.6016H127.65V102.122C129.328 99.6736 131.3 97.7469 133.566 96.3416C135.833 94.8909 138.281 94.1656 140.91 94.1656C144.174 94.1656 146.736 94.9816 148.594 96.6136C150.498 98.2456 151.45 100.671 151.45 103.89V127.962L156.21 128.642V130.002H140.57V128.642L144.65 127.962V104.026C144.65 101.668 144.174 99.8549 143.222 98.5856C142.27 97.2709 140.797 96.6136 138.802 96.6136C136.717 96.6136 134.7 97.3842 132.75 98.9256C130.846 100.422 129.146 102.28 127.65 104.502V127.962L131.73 128.642V130.002H116.09V128.642Z" fill="black"/>
<path d="M213.206 130.682C210.667 130.682 208.763 130.07 207.494 128.846C206.224 127.622 205.363 125.536 204.91 122.59L203.618 113.478C203.164 110.395 202.099 107.992 200.422 106.27C198.79 104.502 196.228 103.618 192.738 103.618H187.434V127.554L193.69 128.574V130.002H173.698V128.574L179.954 127.554V78.0496L173.698 77.0976V75.6016H192.738C200.127 75.6016 205.476 76.7576 208.786 79.0696C212.095 81.3816 213.75 84.8949 213.75 89.6096C213.75 97.4069 209.035 101.918 199.606 103.142V103.55C203.096 104.048 205.884 105.295 207.97 107.29C210.1 109.284 211.438 111.936 211.982 115.246L212.866 121.094C213.228 123.632 213.636 125.355 214.09 126.262C214.588 127.168 215.336 127.622 216.334 127.622C217.014 127.622 217.739 127.418 218.51 127.01C219.28 126.556 220.006 125.99 220.686 125.31L221.842 126.534C220.527 128.03 219.167 129.095 217.762 129.73C216.356 130.364 214.838 130.682 213.206 130.682ZM195.05 101.986C198.359 101.986 200.92 100.988 202.734 98.9936C204.592 96.9536 205.522 93.9616 205.522 90.0176V88.5896C205.522 81.0642 201.26 77.3016 192.738 77.3016H187.434V101.986H195.05Z" fill="black"/>
<path d="M239.9 130.682C236.545 130.682 233.508 129.934 230.788 128.438C228.068 126.896 225.915 124.743 224.328 121.978C222.741 119.212 221.948 116.016 221.948 112.39C221.948 108.763 222.719 105.59 224.26 102.87C225.847 100.104 227.955 97.9736 230.584 96.4776C233.259 94.9362 236.228 94.1656 239.492 94.1656C242.348 94.1656 244.909 94.8002 247.176 96.0696C249.443 97.3389 251.211 99.1069 252.48 101.374C253.749 103.595 254.407 106.156 254.452 109.058H229.428V115.79C229.428 119.779 230.312 123.02 232.08 125.514C233.893 127.962 236.5 129.186 239.9 129.186C243.028 129.186 245.793 128.302 248.196 126.534C250.599 124.766 252.072 122.476 252.616 119.666H254.18C253.545 123.02 251.936 125.695 249.352 127.69C246.768 129.684 243.617 130.682 239.9 130.682ZM246.972 107.358C246.972 103.414 246.36 100.49 245.136 98.5856C243.912 96.6362 242.008 95.6616 239.424 95.6616C236.387 95.6616 234.029 96.7269 232.352 98.8576C230.675 100.988 229.723 103.822 229.496 107.358H246.972Z" fill="black"/>
<path d="M268.837 130.682C265.936 130.682 263.556 129.934 261.697 128.438C259.838 126.896 258.909 124.63 258.909 121.638C258.909 117.376 260.7 114.362 264.281 112.594C267.862 110.78 272.01 109.874 276.725 109.874H281.281V104.638C281.281 102.28 281.009 100.467 280.465 99.1976C279.966 97.8829 279.173 96.9762 278.085 96.4776C276.997 95.9336 275.524 95.6616 273.665 95.6616C271.534 95.6616 269.948 96.0922 268.905 96.9536C267.862 97.7696 267.341 98.8802 267.341 100.286C267.341 101.6 267.976 102.462 269.245 102.87C269.245 104.003 268.814 105 267.953 105.862C267.092 106.723 266.072 107.154 264.893 107.154C263.624 107.154 262.604 106.814 261.833 106.134C261.062 105.408 260.677 104.32 260.677 102.87C260.677 100.24 261.992 98.1322 264.621 96.5456C267.25 94.9589 270.537 94.1656 274.481 94.1656C283.548 94.1656 288.081 98.1096 288.081 105.998V125.446C288.081 126.443 288.285 127.214 288.693 127.758C289.146 128.256 289.781 128.506 290.597 128.506C291.368 128.506 291.98 128.256 292.433 127.758C292.886 127.214 293.113 126.488 293.113 125.582H294.541C294.541 127.168 294.02 128.415 292.977 129.322C291.98 130.228 290.574 130.682 288.761 130.682C286.676 130.682 284.908 130.092 283.457 128.914C282.052 127.69 281.326 125.808 281.281 123.27C280.193 125.582 278.516 127.395 276.249 128.71C274.028 130.024 271.557 130.682 268.837 130.682ZM272.577 127.69C273.801 127.69 275.048 127.327 276.317 126.602C277.632 125.876 278.742 124.834 279.649 123.474C280.556 122.068 281.1 120.391 281.281 118.442V111.37H276.725C273.008 111.37 270.22 112.208 268.361 113.886C266.548 115.518 265.641 117.83 265.641 120.822C265.641 123.315 266.23 125.083 267.409 126.126C268.588 127.168 270.31 127.69 272.577 127.69Z" fill="black"/>
<path d="M309.323 130.682C305.606 130.682 302.5 129.888 300.007 128.302C297.514 126.715 296.267 124.652 296.267 122.114C296.267 120.799 296.607 119.779 297.287 119.054C298.012 118.283 298.964 117.898 300.143 117.898C301.05 117.898 301.82 118.124 302.455 118.578C303.09 119.031 303.543 119.666 303.815 120.482C302.818 121.57 302.319 122.726 302.319 123.95C302.319 125.355 302.954 126.579 304.223 127.622C305.492 128.664 307.192 129.186 309.323 129.186C312.179 129.186 314.514 128.551 316.327 127.282C318.14 125.967 319.047 124.222 319.047 122.046C319.047 120.776 318.662 119.824 317.891 119.19C317.12 118.555 315.624 117.83 313.403 117.014L303.135 113.274C299.1 111.823 297.083 109.126 297.083 105.182C297.083 101.963 298.194 99.3336 300.415 97.2936C302.636 95.2082 305.696 94.1656 309.595 94.1656C312.814 94.1656 315.556 94.9136 317.823 96.4096C320.135 97.8602 321.291 99.9456 321.291 102.666C321.291 103.754 320.996 104.638 320.407 105.318C319.818 105.952 319.047 106.27 318.095 106.27C317.143 106.27 316.35 106.02 315.715 105.522C315.126 104.978 314.831 104.252 314.831 103.346C315.42 102.892 315.828 102.416 316.055 101.918C316.282 101.374 316.395 100.739 316.395 100.014C316.395 98.7442 315.828 97.7016 314.695 96.8856C313.607 96.0696 311.907 95.6616 309.595 95.6616C307.6 95.6616 305.878 95.9789 304.427 96.6136C303.022 97.2029 301.956 97.9962 301.231 98.9936C300.506 99.9909 300.143 101.011 300.143 102.054C300.143 103.142 300.528 104.003 301.299 104.638C302.115 105.272 303.588 105.975 305.719 106.746L315.239 110.146C317.46 110.962 319.138 112.095 320.271 113.546C321.404 114.996 321.971 116.878 321.971 119.19C321.971 122.499 320.928 125.242 318.843 127.418C316.758 129.594 313.584 130.682 309.323 130.682Z" fill="black"/>
<path d="M344.519 130.682C341.255 130.682 338.286 129.934 335.611 128.438C332.936 126.896 330.806 124.743 329.219 121.978C327.678 119.167 326.907 115.971 326.907 112.39C326.907 108.808 327.678 105.635 329.219 102.87C330.806 100.104 332.936 97.9736 335.611 96.4776C338.286 94.9362 341.255 94.1656 344.519 94.1656C347.783 94.1656 350.752 94.9362 353.427 96.4776C356.102 97.9736 358.21 100.104 359.751 102.87C361.338 105.635 362.131 108.808 362.131 112.39C362.131 115.971 361.338 119.167 359.751 121.978C358.21 124.743 356.102 126.896 353.427 128.438C350.752 129.934 347.783 130.682 344.519 130.682ZM344.519 129.186C347.874 129.186 350.39 127.962 352.067 125.514C353.79 123.066 354.651 119.824 354.651 115.79V108.99C354.651 104.955 353.79 101.736 352.067 99.3336C350.39 96.8856 347.874 95.6616 344.519 95.6616C341.164 95.6616 338.626 96.8856 336.903 99.3336C335.226 101.736 334.387 104.955 334.387 108.99V115.79C334.387 119.824 335.226 123.066 336.903 125.514C338.626 127.962 341.164 129.186 344.519 129.186Z" fill="black"/>
<path d="M365.498 128.642L370.258 127.962V96.8176L365.498 96.1376V94.7776H377.058V102.122C378.735 99.6736 380.707 97.7469 382.974 96.3416C385.241 94.8909 387.689 94.1656 390.318 94.1656C393.582 94.1656 396.143 94.9816 398.002 96.6136C399.906 98.2456 400.858 100.671 400.858 103.89V127.962L405.618 128.642V130.002H389.978V128.642L394.058 127.962V104.026C394.058 101.668 393.582 99.8549 392.63 98.5856C391.678 97.2709 390.205 96.6136 388.21 96.6136C386.125 96.6136 384.107 97.3842 382.158 98.9256C380.254 100.422 378.554 102.28 377.058 104.502V127.962L381.138 128.642V130.002H365.498V128.642Z" fill="black"/>
<path d="M418.522 130.682C415.621 130.682 413.241 129.934 411.382 128.438C409.523 126.896 408.594 124.63 408.594 121.638C408.594 117.376 410.385 114.362 413.966 112.594C417.547 110.78 421.695 109.874 426.41 109.874H430.966V104.638C430.966 102.28 430.694 100.467 430.15 99.1976C429.651 97.8829 428.858 96.9762 427.77 96.4776C426.682 95.9336 425.209 95.6616 423.35 95.6616C421.219 95.6616 419.633 96.0922 418.59 96.9536C417.547 97.7696 417.026 98.8802 417.026 100.286C417.026 101.6 417.661 102.462 418.93 102.87C418.93 104.003 418.499 105 417.638 105.862C416.777 106.723 415.757 107.154 414.578 107.154C413.309 107.154 412.289 106.814 411.518 106.134C410.747 105.408 410.362 104.32 410.362 102.87C410.362 100.24 411.677 98.1322 414.306 96.5456C416.935 94.9589 420.222 94.1656 424.166 94.1656C433.233 94.1656 437.766 98.1096 437.766 105.998V125.446C437.766 126.443 437.97 127.214 438.378 127.758C438.831 128.256 439.466 128.506 440.282 128.506C441.053 128.506 441.665 128.256 442.118 127.758C442.571 127.214 442.798 126.488 442.798 125.582H444.226C444.226 127.168 443.705 128.415 442.662 129.322C441.665 130.228 440.259 130.682 438.446 130.682C436.361 130.682 434.593 130.092 433.142 128.914C431.737 127.69 431.011 125.808 430.966 123.27C429.878 125.582 428.201 127.395 425.934 128.71C423.713 130.024 421.242 130.682 418.522 130.682ZM422.262 127.69C423.486 127.69 424.733 127.327 426.002 126.602C427.317 125.876 428.427 124.834 429.334 123.474C430.241 122.068 430.785 120.391 430.966 118.442V111.37H426.41C422.693 111.37 419.905 112.208 418.046 113.886C416.233 115.518 415.326 117.83 415.326 120.822C415.326 123.315 415.915 125.083 417.094 126.126C418.273 127.168 419.995 127.69 422.262 127.69Z" fill="black"/>
<path d="M467.1 130.682C464.425 130.682 462.113 130.002 460.164 128.642C458.26 127.236 456.741 125.332 455.608 122.93V130.002H444.048V128.642L448.808 127.962V77.6416L444.048 76.9616V75.6016H455.608V101.918C456.741 99.5149 458.26 97.6336 460.164 96.2736C462.113 94.8682 464.425 94.1656 467.1 94.1656C470.319 94.1656 473.152 94.9136 475.6 96.4096C478.048 97.9056 479.952 100.036 481.312 102.802C482.672 105.522 483.352 108.718 483.352 112.39C483.352 116.062 482.672 119.28 481.312 122.046C479.952 124.766 478.048 126.896 475.6 128.438C473.152 129.934 470.319 130.682 467.1 130.682ZM466.42 128.982C472.721 128.982 475.872 124.584 475.872 115.79V108.99C475.872 100.24 472.721 95.8656 466.42 95.8656C464.425 95.8656 462.612 96.4549 460.98 97.6336C459.348 98.7669 458.056 100.308 457.104 102.258C456.152 104.162 455.653 106.247 455.608 108.514V115.79C455.608 118.102 456.061 120.278 456.968 122.318C457.92 124.358 459.212 125.99 460.844 127.214C462.521 128.392 464.38 128.982 466.42 128.982Z" fill="black"/>
<path d="M486.251 130.002V128.642L491.351 127.962V77.6416L486.251 76.9616V75.6016H498.151V127.962L502.911 128.642V130.002H486.251Z" fill="black"/>
<path d="M523.864 130.682C520.509 130.682 517.472 129.934 514.752 128.438C512.032 126.896 509.878 124.743 508.292 121.978C506.705 119.212 505.912 116.016 505.912 112.39C505.912 108.763 506.682 105.59 508.224 102.87C509.81 100.104 511.918 97.9736 514.548 96.4776C517.222 94.9362 520.192 94.1656 523.456 94.1656C526.312 94.1656 528.873 94.8002 531.14 96.0696C533.406 97.3389 535.174 99.1069 536.444 101.374C537.713 103.595 538.37 106.156 538.416 109.058H513.392V115.79C513.392 119.779 514.276 123.02 516.044 125.514C517.857 127.962 520.464 129.186 523.864 129.186C526.992 129.186 529.757 128.302 532.16 126.534C534.562 124.766 536.036 122.476 536.58 119.666H538.144C537.509 123.02 535.9 125.695 533.316 127.69C530.732 129.684 527.581 130.682 523.864 130.682ZM530.936 107.358C530.936 103.414 530.324 100.49 529.1 98.5856C527.876 96.6362 525.972 95.6616 523.388 95.6616C520.35 95.6616 517.993 96.7269 516.316 98.8576C514.638 100.988 513.686 103.822 513.46 107.358H530.936Z" fill="black"/>
<path d="M596.882 130.682C594.344 130.682 592.44 130.07 591.17 128.846C589.901 127.622 589.04 125.536 588.586 122.59L587.294 113.478C586.841 110.395 585.776 107.992 584.098 106.27C582.466 104.502 579.905 103.618 576.414 103.618H571.11V127.554L577.366 128.574V130.002H557.374V128.574L563.63 127.554V78.0496L557.374 77.0976V75.6016H576.414C583.804 75.6016 589.153 76.7576 592.462 79.0696C595.772 81.3816 597.426 84.8949 597.426 89.6096C597.426 97.4069 592.712 101.918 583.282 103.142V103.55C586.773 104.048 589.561 105.295 591.646 107.29C593.777 109.284 595.114 111.936 595.658 115.246L596.542 121.094C596.905 123.632 597.313 125.355 597.766 126.262C598.265 127.168 599.013 127.622 600.01 127.622C600.69 127.622 601.416 127.418 602.186 127.01C602.957 126.556 603.682 125.99 604.362 125.31L605.518 126.534C604.204 128.03 602.844 129.095 601.438 129.73C600.033 130.364 598.514 130.682 596.882 130.682ZM578.726 101.986C582.036 101.986 584.597 100.988 586.41 98.9936C588.269 96.9536 589.198 93.9616 589.198 90.0176V88.5896C589.198 81.0642 584.937 77.3016 576.414 77.3016H571.11V101.986H578.726Z" fill="black"/>
<path d="M623.577 130.682C620.222 130.682 617.185 129.934 614.465 128.438C611.745 126.896 609.591 124.743 608.005 121.978C606.418 119.212 605.625 116.016 605.625 112.39C605.625 108.763 606.395 105.59 607.937 102.87C609.523 100.104 611.631 97.9736 614.261 96.4776C616.935 94.9362 619.905 94.1656 623.169 94.1656C626.025 94.1656 628.586 94.8002 630.853 96.0696C633.119 97.3389 634.887 99.1069 636.157 101.374C637.426 103.595 638.083 106.156 638.129 109.058H613.105V115.79C613.105 119.779 613.989 123.02 615.757 125.514C617.57 127.962 620.177 129.186 623.577 129.186C626.705 129.186 629.47 128.302 631.873 126.534C634.275 124.766 635.749 122.476 636.293 119.666H637.857C637.222 123.02 635.613 125.695 633.029 127.69C630.445 129.684 627.294 130.682 623.577 130.682ZM630.649 107.358C630.649 103.414 630.037 100.49 628.813 98.5856C627.589 96.6362 625.685 95.6616 623.101 95.6616C620.063 95.6616 617.706 96.7269 616.029 98.8576C614.351 100.988 613.399 103.822 613.173 107.358H630.649Z" fill="black"/>
<path d="M641.294 128.642L646.054 127.962V96.8176L641.294 96.1376V94.7776H652.854V102.122C654.531 99.6736 656.503 97.7469 658.77 96.3416C661.036 94.8909 663.484 94.1656 666.114 94.1656C669.378 94.1656 671.939 94.9816 673.798 96.6136C675.702 98.2456 676.654 100.671 676.654 103.89V127.962L681.414 128.642V130.002H665.774V128.642L669.854 127.962V104.026C669.854 101.668 669.378 99.8549 668.426 98.5856C667.474 97.2709 666 96.6136 664.006 96.6136C661.92 96.6136 659.903 97.3842 657.954 98.9256C656.05 100.422 654.35 102.28 652.854 104.502V127.962L656.934 128.642V130.002H641.294V128.642Z" fill="black"/>
<path d="M697.174 130.682C694.182 130.682 691.779 129.934 689.966 128.438C688.198 126.942 687.314 124.562 687.314 121.298V96.8176L682.486 96.1376V94.7776H687.314V89.1336L694.114 87.4336V94.7776H702.954V96.1376L694.114 96.8176V121.162C694.114 125.967 695.836 128.37 699.282 128.37C700.007 128.37 700.687 128.256 701.322 128.03C702.002 127.803 702.523 127.576 702.886 127.35C703.294 127.123 703.543 126.964 703.634 126.874L704.518 127.962C702.478 129.775 700.03 130.682 697.174 130.682Z" fill="black"/>
<path d="M331.222 44.8668C332.406 44.8668 332.998 45.4341 332.998 46.5688C332.998 47.2594 332.184 48.4188 330.556 50.0468C328.977 51.6748 327.029 53.3768 324.71 55.1528C322.391 56.8794 319.653 58.4088 316.496 59.7408C313.339 61.0235 310.255 61.6648 307.246 61.6648C304.237 61.6648 301.721 60.5301 299.698 58.2608C297.675 55.9421 296.664 52.2915 296.664 47.3088C296.664 42.3261 297.7 37.7381 299.772 33.5448C301.844 29.3021 304.483 25.7994 307.69 23.0368C310.897 20.2248 314.473 17.8321 318.42 15.8588C325.968 12.0601 333.319 10.1608 340.472 10.1608C349.056 10.1608 353.348 12.4054 353.348 16.8948C353.348 19.7068 351.868 22.7161 348.908 25.9228C345.948 29.1294 343.531 30.7328 341.656 30.7328C340.373 30.7328 339.732 30.3628 339.732 29.6228C339.732 28.7348 340.077 27.8961 340.768 27.1068C343.185 24.6894 344.641 23.1354 345.134 22.4448C345.677 21.7541 345.948 21.2608 345.948 20.9648C345.948 20.6688 345.677 20.5208 345.134 20.5208C343.358 20.5208 340.62 21.7541 336.92 24.2208C333.22 26.6874 329.52 29.6474 325.82 33.1008C322.12 36.5541 318.864 40.3034 316.052 44.3488C313.289 48.3941 311.908 51.7981 311.908 54.5608C311.908 55.4981 312.426 55.9668 313.462 55.9668C314.991 55.9668 318.223 54.1168 323.156 50.4168C328.139 46.7168 330.827 44.8668 331.222 44.8668Z" fill="#92D63B"/>
<path d="M354.639 43.4608C354.639 44.7928 355.428 45.4588 357.007 45.4588C358.487 45.4588 360.115 45.0888 361.891 44.3488C363.667 43.6088 364.629 43.2388 364.777 43.2388C364.925 43.2388 365.073 43.3621 365.221 43.6088C365.418 43.8554 365.517 44.1021 365.517 44.3488C365.517 44.8914 364.358 45.6068 362.039 46.4948C359.77 47.3334 358.117 47.7528 357.081 47.7528C356.045 47.7528 355.305 47.7528 354.861 47.7528C354.466 47.7034 354.146 47.9501 353.899 48.4928C350.248 55.3501 346.622 59.6668 343.021 61.4428C341.442 62.2321 339.765 62.6268 337.989 62.6268C336.262 62.6268 334.832 62.0594 333.697 60.9248C332.612 59.7408 332.069 57.8908 332.069 55.3748C332.069 51.8721 333.204 48.6161 335.473 45.6068C337.792 42.5481 340.406 40.2541 343.317 38.7248C346.228 37.1954 348.867 36.4308 351.235 36.4308C355.231 36.8748 357.229 38.0834 357.229 40.0568C357.229 40.5994 357.081 41.0928 356.785 41.5368C356.538 41.9314 356.316 42.1781 356.119 42.2768C355.971 42.3261 355.774 42.3754 355.527 42.4248C354.935 42.5728 354.639 42.9181 354.639 43.4608ZM348.571 46.8648C346.992 48.0488 345.438 49.5534 343.909 51.3788C342.429 53.2041 341.689 54.7088 341.689 55.8928C341.689 57.0275 342.01 57.5948 342.651 57.5948C343.638 57.5948 345.438 56.0901 348.053 53.0808C350.717 50.0221 352.049 47.5061 352.049 45.5328C352.049 45.2368 351.852 45.0888 351.457 45.0888C351.112 45.0888 350.15 45.6808 348.571 46.8648Z" fill="#92D63B"/>
<path d="M369.29 38.1328C369.734 38.1328 371.14 37.7874 373.508 37.0968C375.876 36.3568 377.529 35.9868 378.466 35.9868C379.453 35.9868 380.39 36.2334 381.278 36.7268C382.166 37.2201 382.61 37.9108 382.61 38.7988C382.61 39.6868 382.067 40.6488 380.982 41.6848C379.897 42.7208 378.491 43.9295 376.764 45.3108C375.037 46.6921 373.459 47.9501 372.028 49.0848C370.597 50.1701 369.808 50.8114 369.66 51.0088C369.512 51.1568 369.438 51.3541 369.438 51.6008C369.438 51.8475 369.635 51.9708 370.03 51.9708C372.25 51.6254 373.533 51.4528 373.878 51.4528C375.259 51.4528 376.715 51.9215 378.244 52.8588C379.773 53.7961 380.538 54.9308 380.538 56.2628C380.538 56.9534 380.242 57.5455 379.65 58.0388C379.107 58.5321 378.071 58.8281 376.542 58.9268C375.062 59.0255 372.225 59.6914 368.032 60.9248C363.839 62.1088 361.372 62.7008 360.632 62.7008C359.892 62.7008 358.905 62.2568 357.672 61.3688C356.439 60.4808 355.822 59.6914 355.822 59.0008C355.822 57.8661 357.277 56.2381 360.188 54.1168C363.099 51.9461 365.22 50.5154 366.552 49.8248C367.884 49.0848 369.191 48.2461 370.474 47.3088C371.806 46.3715 372.472 45.7548 372.472 45.4588C372.472 45.1628 372.398 45.0148 372.25 45.0148C372.151 45.0148 371.436 45.2121 370.104 45.6068C368.772 46.0014 367.588 46.1988 366.552 46.1988C365.516 46.1988 364.48 45.8041 363.444 45.0148C362.457 44.2254 361.964 43.1401 361.964 41.7588C361.964 40.3281 363.271 38.5274 365.886 36.3568C368.55 34.1368 370.696 33.0268 372.324 33.0268C372.916 33.0268 373.212 33.3474 373.212 33.9888C373.212 34.3341 372.891 34.7288 372.25 35.1728C369.833 36.6034 368.624 37.4668 368.624 37.7628C368.624 38.0094 368.846 38.1328 369.29 38.1328Z" fill="#92D63B"/>
<path d="M380.767 54.2648C380.767 52.1928 382.05 49.7755 384.615 47.0128C387.23 44.2501 389.869 41.9808 392.533 40.2048C395.247 38.3794 396.949 37.4668 397.639 37.4668C398.33 37.4668 398.848 37.9601 399.193 38.9468C399.588 39.9334 399.785 40.7968 399.785 41.5368C399.785 42.2274 399.736 42.6961 399.637 42.9428C399.588 43.1895 399.514 43.3621 399.415 43.4608C399.366 43.5594 399.243 43.6828 399.045 43.8308C398.897 43.9788 398.725 44.1514 398.527 44.3488C398.379 44.4968 397.565 45.4341 396.085 47.1608C394.605 48.8381 393.767 49.8248 393.569 50.1208C393.421 50.3675 393.347 50.7128 393.347 51.1568C393.347 51.5515 393.52 51.7488 393.865 51.7488C394.211 51.7488 394.507 51.6501 394.753 51.4528C396.579 50.3181 400.747 47.0868 407.259 41.7588C408.591 40.8214 409.479 40.3528 409.923 40.3528C410.367 40.3528 410.811 40.5748 411.255 41.0188C411.749 41.4134 411.995 41.7341 411.995 41.9808C411.995 43.4114 410.441 46.3468 407.333 50.7868C404.275 55.1774 400.476 60.3081 395.937 66.1788C391.399 72.0988 388.389 76.1688 386.909 78.3888C385.429 80.6088 383.999 81.7188 382.617 81.7188C381.927 81.7188 381.236 81.3488 380.545 80.6088C379.855 79.9181 379.509 79.0548 379.509 78.0188C379.509 77.0321 379.583 76.0948 379.731 75.2068C379.879 74.3681 380.348 73.2581 381.137 71.8768C381.927 70.4954 382.963 68.9908 384.245 67.3628C385.528 65.7841 386.663 64.3781 387.649 63.1448C388.685 61.9608 389.845 60.6534 391.127 59.2228C392.459 57.7921 393.199 56.9781 393.347 56.7808C393.545 56.5341 393.643 56.3368 393.643 56.1888C393.643 56.0408 393.569 55.9668 393.421 55.9668C393.323 55.9668 392.188 56.5588 390.017 57.7428C387.896 58.9268 386.145 59.5188 384.763 59.5188C383.431 59.5188 382.42 58.8528 381.729 57.5208C381.088 56.1888 380.767 55.1034 380.767 54.2648Z" fill="#92D63B"/>
<path d="M461.813 42.5728C467.585 43.2634 472.642 44.6694 476.983 46.7908C479.302 47.9254 481.127 49.4548 482.459 51.3788C483.84 53.3028 484.531 55.4981 484.531 57.9648C484.531 59.4448 483.964 60.2588 482.829 60.4068C482.385 60.5055 481.004 60.5548 478.685 60.5548C476.416 60.5548 471.828 60.1848 464.921 59.4448C458.064 58.6554 452.119 58.2114 447.087 58.1128C439.194 65.1674 432.065 68.6948 425.701 68.6948C423.037 68.6948 420.842 67.8068 419.115 66.0308C417.388 64.3041 416.525 62.2815 416.525 59.9628C416.525 54.8321 419.214 50.5401 424.591 47.0868C430.018 43.5841 438.404 41.8328 449.751 41.8328C451.922 41.8328 454.364 41.9314 457.077 42.1288C458.064 40.9941 459.494 39.2921 461.369 37.0228C459.248 36.9241 457.472 36.4554 456.041 35.6168C454.61 34.7781 453.624 33.2488 453.081 31.0288C453.081 29.5488 453.846 28.8088 455.375 28.8088C459.963 28.8088 464.847 28.1921 470.027 26.9588C475.158 21.2854 479.943 16.8948 484.383 13.7868C488.872 10.6788 493.436 9.10011 498.073 9.05078C501.822 9.39611 503.697 11.0241 503.697 13.9348C503.697 17.5361 501.822 21.0634 498.073 24.5168C494.324 27.9701 489.588 30.8068 483.865 33.0268C478.142 35.2468 472.37 36.5541 466.549 36.9488C464.477 39.4154 462.898 41.2901 461.813 42.5728ZM495.261 13.3428C495.261 13.1454 495.113 13.0468 494.817 13.0468C490.278 13.0468 484.309 17.0428 476.909 25.0348C482.138 23.3081 486.504 21.3594 490.007 19.1888C493.51 17.0181 495.261 15.0694 495.261 13.3428ZM424.295 64.1068C424.295 64.3535 424.517 64.4768 424.961 64.4768C429.944 64.4768 435.222 62.4294 440.797 58.3348C436.505 58.6308 432.682 59.2475 429.327 60.1848C425.972 61.0728 424.295 62.3801 424.295 64.1068Z" fill="#92D63B"/>
<path d="M485.549 61.8128C484.809 61.1221 484.439 60.2341 484.439 59.1488C484.439 55.6955 486.486 51.7734 490.581 47.3828C494.725 42.9921 498.573 40.4761 502.125 39.8348C504.345 39.8348 505.455 41.1421 505.455 43.7568C505.455 44.5954 504.345 46.5688 502.125 49.6768C499.905 52.7848 497.364 55.7694 494.503 58.6308C491.642 61.4921 489.619 62.9228 488.435 62.9228C487.251 62.9228 486.289 62.5528 485.549 61.8128ZM506.787 37.4668C509.155 37.2201 511.104 36.2088 512.633 34.4328C514.162 32.6074 514.927 31.0534 514.927 29.7708C514.927 27.7481 513.916 26.7368 511.893 26.7368C510.512 26.7368 508.884 27.3534 507.009 28.5868C505.134 29.8201 504.074 31.6208 503.827 33.9888L503.901 34.8028C504 35.3948 504.296 35.9868 504.789 36.5788C505.282 37.1708 505.948 37.4668 506.787 37.4668Z" fill="#92D63B"/>
<path d="M504.089 64.1808C503.201 64.1808 502.338 63.6874 501.499 62.7008C500.71 61.7141 500.315 60.8261 500.315 60.0368C500.315 59.1981 501.006 57.0275 502.387 53.5248C503.818 50.0221 505.643 46.5934 507.863 43.2388C510.132 39.8348 512.155 38.1328 513.931 38.1328C515.066 38.1328 516.077 38.6754 516.965 39.7608C517.902 40.7968 518.346 41.6601 518.297 42.3508C518.297 43.0415 517.557 44.6448 516.077 47.1608C514.646 49.6768 513.931 51.1814 513.931 51.6748C513.931 52.1681 514.03 52.4148 514.227 52.4148C514.474 52.4148 514.77 52.2668 515.115 51.9708C515.51 51.6254 516.373 50.7868 517.705 49.4548C519.086 48.1228 520.566 46.7168 522.145 45.2368C523.724 43.7568 525.426 42.2274 527.251 40.6488C531.494 36.9981 534.404 35.1728 535.983 35.1728C536.575 35.1728 537.118 35.5428 537.611 36.2828C538.154 36.9734 538.425 37.4914 538.425 37.8368C538.425 38.1821 538.302 38.3794 538.055 38.4288C535.342 38.9221 531.247 41.4628 525.771 46.0508C520.739 50.2934 516.472 54.0428 512.969 57.2988C509.516 60.5548 507.394 62.5034 506.605 63.1448C505.865 63.8354 505.026 64.1808 504.089 64.1808Z" fill="#92D63B"/>
<path d="M524.572 61.8128C523.832 61.1221 523.462 60.2341 523.462 59.1488C523.462 55.6955 525.51 51.7734 529.605 47.3828C533.749 42.9921 537.596 40.4761 541.148 39.8348C543.368 39.8348 544.479 41.1421 544.479 43.7568C544.479 44.5954 543.368 46.5688 541.148 49.6768C538.928 52.7848 536.388 55.7694 533.527 58.6308C530.665 61.4921 528.642 62.9228 527.458 62.9228C526.274 62.9228 525.312 62.5528 524.572 61.8128ZM545.811 37.4668C548.179 37.2201 550.127 36.2088 551.656 34.4328C553.186 32.6074 553.951 31.0534 553.951 29.7708C553.951 27.7481 552.939 26.7368 550.917 26.7368C549.535 26.7368 547.907 27.3534 546.033 28.5868C544.158 29.8201 543.097 31.6208 542.85 33.9888L542.924 34.8028C543.023 35.3948 543.319 35.9868 543.812 36.5788C544.306 37.1708 544.972 37.4668 545.811 37.4668Z" fill="#92D63B"/>
<path d="M569.752 57.6688L572.046 56.7808C572.737 56.7808 573.082 57.0521 573.082 57.5948C573.082 58.8775 572.022 60.0861 569.9 61.2208C567.828 62.4048 565.83 62.9968 563.906 62.9968C562.032 62.9968 560.576 62.5775 559.54 61.7388C558.504 60.9495 557.986 59.7161 557.986 58.0388C557.986 56.3615 558.948 54.2894 560.872 51.8228C561.119 51.5761 561.242 51.3788 561.242 51.2308C561.242 51.0334 561.144 50.9348 560.946 50.9348C560.749 50.9348 560.576 50.9841 560.428 51.0828C560.28 51.1814 559.22 51.8475 557.246 53.0808C552.51 56.0901 549.131 58.1868 547.108 59.3708C546.27 59.8148 545.48 60.0368 544.74 60.0368C544 60.0368 543.186 59.5681 542.298 58.6308C541.41 57.6934 540.966 56.7561 540.966 55.8188C540.966 53.8454 543.754 50.2441 549.328 45.0148C554.903 39.7361 558.677 37.0968 560.65 37.0968C561.39 37.1954 562.032 37.6148 562.574 38.3548C563.117 39.0948 563.388 39.9828 563.388 41.0188C563.388 42.0054 563.018 43.0908 562.278 44.2748C561.193 46.0014 560.305 47.2101 559.614 47.9008C558.973 48.5421 558.652 48.9614 558.652 49.1588C558.652 49.3068 558.726 49.3808 558.874 49.3808C559.022 49.3808 559.22 49.3068 559.466 49.1588C559.762 48.9614 562.106 47.4321 566.496 44.5708C570.936 41.6601 573.428 40.0568 573.97 39.7608C574.513 39.4154 575.105 39.2428 575.746 39.2428C576.388 39.2428 577.226 39.5634 578.262 40.2048C579.298 40.7968 579.816 41.6108 579.816 42.6468C579.816 43.6828 578.904 45.2121 577.078 47.2348C575.302 49.2574 573.502 51.2061 571.676 53.0808C569.851 54.9555 568.938 56.2874 568.938 57.0768C568.938 57.4714 569.21 57.6688 569.752 57.6688Z" fill="#92D63B"/>
<path d="M588.774 56.5588C585.814 58.3841 583.422 59.2968 581.596 59.2968C579.771 59.2968 578.39 58.6555 577.452 57.3728C576.515 56.0901 576.046 54.9308 576.046 53.8948C576.046 52.8588 576.367 51.6748 577.008 50.3428C577.65 49.0108 578.636 47.5308 579.968 45.9028C581.35 44.2748 582.928 42.7454 584.704 41.3148C586.48 39.8841 588.651 38.7001 591.216 37.7628C593.831 36.7761 596.544 36.2828 599.356 36.2828C600.54 36.2828 601.897 36.7268 603.426 37.6148C604.956 38.4534 605.72 39.4894 605.72 40.7228C605.72 41.5614 605.03 42.1534 603.648 42.4988C599.899 43.5348 596.199 45.1381 592.548 47.3088C588.947 49.4301 587.146 51.4034 587.146 53.2288C587.146 53.7221 587.368 53.9688 587.812 53.9688C589.391 53.9688 592.252 52.2668 596.396 48.8628C600.59 45.4588 602.76 43.7568 602.908 43.7568C603.599 43.7568 603.944 44.2254 603.944 45.1628C603.944 47.3334 602.834 50.7374 600.614 55.3748C598.394 60.0121 595.656 64.6988 592.4 69.4348C589.194 74.2201 585.469 78.4135 581.226 82.0148C576.984 85.6161 573.086 87.4168 569.534 87.4168C568.992 87.4168 568.35 86.8494 567.61 85.7148C566.821 84.6294 566.426 83.7414 566.426 83.0508C566.426 82.3601 566.451 81.9408 566.5 81.7928C566.994 80.0168 570.176 76.9828 576.046 72.6908C578.464 70.9641 580.856 69.1635 583.224 67.2888C585.592 65.4635 587.59 63.4901 589.218 61.3688C590.846 59.2968 591.66 57.3481 591.66 55.5228C591.66 55.4241 591.488 55.3748 591.142 55.3748C590.797 55.3748 590.008 55.7695 588.774 56.5588Z" fill="#92D63B"/>
</svg>
