<svg width="40" height="40" viewBox="0 0 40 40" fill="none" xmlns="http://www.w3.org/2000/svg">
<path d="M29.7036 30.2807C20.7756 30.2807 13.5356 23.0367 13.5356 14.1047C13.5356 10.2687 14.8716 6.74466 17.1036 3.97266C9.64762 5.41266 4.01562 11.9727 4.01562 19.8527C4.01562 28.7887 11.2556 36.0287 20.1836 36.0287C25.2796 36.0287 29.8196 33.6687 32.7836 29.9847C31.7836 30.1767 30.7556 30.2807 29.7036 30.2807ZM20.1836 34.9087C16.1636 34.9087 12.3876 33.3407 9.54362 30.4967C6.69963 27.6527 5.13562 23.8727 5.13562 19.8487C5.13562 18.0527 5.44763 16.3007 6.06363 14.6327C6.65963 13.0207 7.51962 11.5327 8.62362 10.2087C10.2036 8.31266 12.2236 6.84066 14.4756 5.91666C13.1316 8.42066 12.4156 11.2407 12.4156 14.1007C12.4156 23.6407 20.1716 31.4007 29.7036 31.4007C29.7476 31.4007 29.7956 31.4007 29.8396 31.4007C27.1556 33.6567 23.7596 34.9087 20.1836 34.9087Z" fill="black"/>
<path d="M21.2041 15.4085L21.1881 15.4045C20.9521 15.3725 20.4001 15.3005 20.4001 14.9165V14.8645C20.4001 14.6005 20.6481 14.1085 22.4601 12.3005C22.6041 12.1245 22.7161 11.9925 22.8001 11.8885C22.3401 11.9525 21.6721 12.1045 20.8081 12.3445L20.7761 12.3525H20.6401L20.5921 12.3285C20.3041 12.1885 20.2441 12.0005 20.2441 11.8645V11.8005L20.2801 11.7405C20.3721 11.5965 20.5321 11.4885 20.5641 11.4685L20.5961 11.4485L20.6321 11.4405C21.7681 11.1325 22.5601 10.9805 23.0601 10.9805H23.3761C23.7481 10.9805 23.9801 11.2085 23.9801 11.5685V11.6205C23.9801 11.8005 23.9801 12.1245 21.7361 14.3485C22.5681 14.2645 23.0881 14.2245 23.3241 14.2245H24.0601L24.1081 14.2485C24.3321 14.3565 24.4561 14.5405 24.4561 14.7685V14.8205L24.4361 14.8685C24.4001 14.9525 24.2841 15.2085 24.0521 15.2565L24.0281 15.2605H24.0041C23.4161 15.2605 22.5601 15.3125 21.4481 15.4085H21.4361H21.2041Z" fill="black"/>
<path d="M27.3083 11.7759H27.3003C26.8763 11.7159 26.3123 11.5999 26.3123 11.2559V11.1759C26.3123 10.8719 26.6323 10.1319 29.3963 7.22788C29.9803 6.48788 30.2043 6.18388 30.2923 6.05988C29.6083 6.07988 28.3723 6.34787 26.6243 6.85987L26.6083 6.86388H26.4843L26.4603 6.85187C26.2043 6.71987 26.0723 6.55188 26.0723 6.34388V6.31188L26.0883 6.28388C26.2123 6.07988 26.2283 5.97987 26.2283 5.93987L26.5243 5.89188C28.1923 5.41588 29.4043 5.17188 30.1283 5.17188H30.6123C31.0483 5.17188 31.2923 5.41588 31.2923 5.85588V5.93587C31.2923 6.24787 30.9123 7.05588 27.6483 10.4399L27.4963 10.6439H27.7123C29.2203 10.4799 30.1443 10.4039 30.5323 10.4039H31.6043L31.6283 10.4159C31.8803 10.5439 32.0163 10.7519 32.0163 11.0079V11.0319L32.0083 11.0559C31.8883 11.3479 31.7563 11.4959 31.6003 11.5319L31.5883 11.5359H31.5763C30.6763 11.5359 29.3563 11.6159 27.6483 11.7759H27.6443H27.3083Z" fill="black"/>
</svg>
