<svg width="40" height="40" viewBox="0 0 40 40" fill="none" xmlns="http://www.w3.org/2000/svg">
<path d="M29.2969 19.8633C27.6797 19.8633 26.3672 21.1758 26.3672 22.793C26.3672 24.4102 27.6797 25.7227 29.2969 25.7227C30.9141 25.7227 32.2266 24.4102 32.2266 22.793C32.2266 21.1758 30.9102 19.8633 29.2969 19.8633ZM29.2969 24.707C28.2422 24.707 27.3828 23.8477 27.3828 22.793C27.3828 21.7383 28.2422 20.8789 29.2969 20.8789C30.3516 20.8789 31.2109 21.7383 31.2109 22.793C31.2109 23.8477 30.3516 24.707 29.2969 24.707ZM10.6953 19.8633C9.07812 19.8633 7.76562 21.1758 7.76562 22.793C7.76562 24.4102 9.07812 25.7227 10.6953 25.7227C12.3125 25.7227 13.625 24.4102 13.625 22.793C13.625 21.1758 12.3125 19.8633 10.6953 19.8633ZM10.6953 24.707C9.64062 24.707 8.78125 23.8477 8.78125 22.793C8.78125 21.7383 9.64062 20.8789 10.6953 20.8789C11.75 20.8789 12.6094 21.7383 12.6094 22.793C12.6094 23.8477 11.75 24.707 10.6953 24.707ZM23.9531 20.1445H16.0469C15.5937 20.1445 15.2266 20.5117 15.2266 20.9648V24.6367C15.2266 25.0898 15.5937 25.457 16.0469 25.457H23.9531C24.4063 25.457 24.7734 25.0898 24.7734 24.6367V20.9648C24.7734 20.5117 24.4063 20.1445 23.9531 20.1445ZM23.7578 24.4414H16.2422V21.1602H23.7578V24.4414Z" fill="black"/>
<path d="M37.2383 15.8633C37.0273 15.0781 36.5234 14.4219 35.8203 14.0156C35.1172 13.6094 34.2969 13.5 33.5117 13.7109L32.2734 14.0664L30.3047 8.94531C30.0938 8.39844 29.5586 8.02734 28.9688 8.02734H11.0469C10.457 8.02734 9.91797 8.39844 9.71094 8.95312L7.77344 14.0703L6.49609 13.7109H6.49219C4.87109 13.2773 3.19922 14.2422 2.76563 15.8633C2.71094 16.0742 2.73828 16.293 2.84766 16.4805C2.95703 16.668 3.13281 16.8047 3.34375 16.8594L4.36719 17.1328C4.34375 17.1914 4.32812 17.25 4.32031 17.3125V17.3242L3.55859 24.7969C3.55078 24.8516 3.54688 24.9063 3.54688 24.957V29.9219C3.54688 31.0508 4.42969 31.9727 5.51562 31.9727H8.66797C9.75391 31.9727 10.6367 31.0547 10.6367 29.9219V28.0039H29.3672V29.9219C29.3672 31.0508 30.25 31.9727 31.3359 31.9727H34.4883C35.5742 31.9727 36.457 31.0547 36.457 29.9219V24.9688C36.457 24.9102 36.4531 24.8555 36.4453 24.8008L35.6641 17.3281L35.6602 17.3008C35.6523 17.2461 35.6367 17.1914 35.6172 17.1406L36.6641 16.8594C36.875 16.8047 37.0508 16.668 37.1602 16.4805C37.2695 16.293 37.293 16.0742 37.2383 15.8633ZM10.6602 9.30859C10.7227 9.14844 10.875 9.03906 11.0469 9.03906H28.9688C29.1406 9.03906 29.293 9.14453 29.3555 9.30469L32.3164 17.0234C29.9453 17.3516 25.8242 17.7578 19.9336 17.7578C14.1406 17.7578 10.0937 17.3672 7.73437 17.0469L10.6602 9.30859ZM6.22266 14.6914L7.41016 15.0234L6.76562 16.7266L3.80469 15.9375C4.16797 14.9727 5.21094 14.4219 6.22266 14.6914ZM35.4375 29.9219C35.4375 30.4922 35.0117 30.957 34.4844 30.957H31.332C30.8086 30.957 30.3789 30.4922 30.3789 29.9219V27.8203C30.3789 27.3594 30.0117 26.9883 29.5625 26.9883H10.4336C9.98438 26.9883 9.61719 27.3633 9.61719 27.8203V29.9219C9.61719 30.4922 9.19141 30.957 8.66406 30.957H5.51172C4.98828 30.957 4.55859 30.4922 4.55859 29.9219V24.957V24.918L5.28906 17.6758C6.48047 17.9219 11.2109 18.7734 19.9258 18.7734C28.6602 18.7734 33.4648 17.9141 34.6641 17.668L35.4219 24.918L35.4258 24.9453C35.4258 24.9531 35.4297 24.9648 35.4297 24.9727V29.9219H35.4375ZM33.2891 16.7148L32.6367 15.0195L33.7773 14.6914C34.3008 14.5508 34.8438 14.625 35.3125 14.8945C35.7227 15.1328 36.0313 15.4961 36.1953 15.9336L33.2891 16.7148Z" fill="black"/>
</svg>
