<svg width="40" height="40" viewBox="0 0 40 40" fill="none" xmlns="http://www.w3.org/2000/svg">
<g clip-path="url(#clip0_140_2936)">
<path d="M33.4775 6.42307C29.8721 2.81763 25.0784 0.832031 19.9796 0.832031C14.8807 0.832031 10.0871 2.81763 6.48167 6.42307C2.87623 10.0285 0.890625 14.8221 0.890625 19.921C0.890625 25.0198 2.87623 29.8135 6.48167 33.4189C10.0871 37.0244 14.8807 39.01 19.9796 39.01C25.0784 39.01 29.8721 37.0244 33.4775 33.4189C37.0829 29.8135 39.0685 25.0198 39.0685 19.921C39.0685 14.8221 37.0829 10.0285 33.4775 6.42307ZM19.9796 37.2556C10.4213 37.2556 2.64503 29.4793 2.64503 19.921C2.64503 10.3627 10.4213 2.58643 19.9796 2.58643C29.5379 2.58643 37.3141 10.3627 37.3141 19.921C37.3141 29.4793 29.5379 37.2556 19.9796 37.2556Z" fill="#2D333A"/>
<path d="M19.5571 9.51172H17.8027V22.0965H30.3875V20.3421H19.5571V9.51172Z" fill="#2D333A"/>
</g>
<defs>
<clipPath id="clip0_140_2936">
<rect width="40" height="40" fill="white"/>
</clipPath>
</defs>
</svg>
