<svg width="118" height="68" viewBox="0 0 118 68" fill="none" xmlns="http://www.w3.org/2000/svg">
<path d="M91.6631 49.2051C92.2829 49.2051 92.9118 49.2685 93.5498 49.3965C94.188 49.5062 94.7173 49.7255 95.1367 50.0547C95.5743 50.3656 95.7929 50.8233 95.793 51.4268C95.793 51.6462 95.7474 51.8936 95.6562 52.168C95.5651 52.4238 95.3918 52.5517 95.1367 52.5518C95.0274 52.5518 94.8814 52.5336 94.6992 52.4971C94.517 52.4422 94.3528 52.3959 94.207 52.3594C94.2435 52.5422 94.2708 52.7436 94.2891 52.9629C94.3255 53.1824 94.3438 53.4116 94.3438 53.6494C94.3437 54.7285 93.9784 55.7071 93.249 56.585C92.5196 57.4445 91.4528 57.9565 90.0488 58.1211C89.5384 58.1577 89.1557 58.2221 88.9004 58.3135C88.6634 58.3866 88.545 58.5235 88.5449 58.7246C88.5449 58.9075 88.6542 59.0453 88.873 59.1367C89.0918 59.2098 89.3744 59.2642 89.7207 59.3008C90.833 59.3922 91.8178 59.5481 92.6748 59.7676C93.5318 59.9871 94.1978 60.334 94.6719 60.8096C95.1642 61.3034 95.4102 61.9993 95.4102 62.8955C95.4101 63.9379 95.1003 64.8342 94.4805 65.584C93.8787 66.3522 93.067 66.9465 92.0459 67.3672C91.0248 67.7878 89.9124 67.998 88.709 67.998C87.3414 67.998 86.2564 67.7144 85.4541 67.1475C84.6519 66.5805 84.2501 65.8492 84.25 64.9531C84.25 64.2949 84.4506 63.7093 84.8516 63.1973C85.271 62.6851 85.8185 62.4287 86.4932 62.4287C86.876 62.4287 87.0673 62.5384 87.0674 62.7578C87.0674 62.8858 87.0401 63.0326 86.9854 63.1973C86.949 63.3616 86.9307 63.526 86.9307 63.6904C86.9307 64.2024 87.2224 64.5776 87.8057 64.8154C88.3892 65.0715 89.0916 65.1992 89.9121 65.1992C90.4227 65.1992 90.9429 65.1449 91.4717 65.0352C92.0004 64.9254 92.4378 64.7514 92.7842 64.5137C93.1489 64.2942 93.3311 63.9925 93.3311 63.6084C93.331 63.1877 93.1215 62.877 92.7021 62.6758C92.2828 62.4746 91.7542 62.3187 91.1162 62.209C90.478 62.1175 89.8212 62.026 89.1465 61.9346C88.49 61.8614 87.9243 61.7337 87.4502 61.5508C86.8486 61.3496 86.4021 61.1022 86.1104 60.8096C85.8188 60.517 85.6729 60.1425 85.6729 59.6855C85.6729 58.8259 86.1921 58.1391 87.2314 57.627C86.6299 57.316 86.1742 56.8774 85.8643 56.3105C85.5725 55.7435 85.4268 55.112 85.4268 54.417C85.4268 53.521 85.6546 52.6799 86.1104 51.8936C86.5845 51.1071 87.2777 50.4665 88.1895 49.9727C89.1194 49.4607 90.2774 49.2051 91.6631 49.2051ZM49.0391 49.2871C49.5679 49.2871 49.9059 49.5063 50.0518 49.9453C50.1976 50.3843 50.2705 50.869 50.2705 51.3994C50.2705 52.4054 50.0883 53.4573 49.7236 54.5547C49.359 55.652 48.866 56.6759 48.2461 57.627C47.6261 58.5781 46.9238 59.3463 46.1396 59.9316C45.3739 60.5168 44.5812 60.8095 43.7607 60.8096C43.2684 60.8096 42.8393 60.6637 42.4746 60.3711C42.1282 60.0601 41.9186 59.4929 41.8457 58.6699C41.8092 58.0481 41.7272 57.3622 41.5996 56.6123C41.4902 55.8625 41.3444 55.1493 41.1621 54.4727C40.9798 53.7959 40.7702 53.265 40.5332 52.8809C40.4056 52.6797 40.2588 52.5338 40.0947 52.4424C39.9488 52.3327 39.721 52.2592 39.4111 52.2227C39.2107 52.2043 39.0739 52.14 39.001 52.0303C38.9281 51.9205 38.8916 51.7464 38.8916 51.5088C38.8917 50.7593 39.0922 50.2107 39.4932 49.8633C39.9126 49.4975 40.3872 49.3145 40.916 49.3145C41.4629 49.3145 41.9186 49.4975 42.2832 49.8633C42.6479 50.2108 42.9303 50.6774 43.1309 51.2627C43.3314 51.8479 43.4691 52.4968 43.542 53.21C43.6332 53.905 43.6787 54.6099 43.6787 55.3232C43.6787 55.6158 43.6696 55.9268 43.6514 56.2559V57.0508C43.6514 57.252 43.6878 57.4078 43.7607 57.5176C43.8519 57.6272 44.016 57.6826 44.2529 57.6826C44.5446 57.6826 44.8819 57.6001 45.2646 57.4355C45.6476 57.2526 46.022 56.9962 46.3867 56.667C46.7695 56.3378 47.0794 55.9535 47.3164 55.5146C47.5716 55.0574 47.6992 54.5545 47.6992 54.0059C47.6992 53.695 47.6445 53.3659 47.5352 53.0186C47.444 52.6712 47.289 52.3783 47.0703 52.1406C46.8517 51.9031 46.6875 51.7198 46.5781 51.5918C46.4869 51.4455 46.4414 51.2806 46.4414 51.0977C46.4414 50.7684 46.5872 50.4667 46.8789 50.1924C47.1888 49.9181 47.5443 49.6988 47.9453 49.5342C48.3645 49.3696 48.7291 49.2872 49.0391 49.2871ZM8.01465 42.7842C9.69205 42.7842 10.6861 42.8214 10.9961 42.8945C11.4699 42.9678 11.707 43.2242 11.707 43.6631C11.7069 44.2116 11.5156 44.7147 11.1328 45.1719C10.9322 45.4462 10.7308 45.6474 10.5303 45.7754C10.3297 45.885 10.047 45.9304 9.68262 45.9121C8.88036 45.8572 8.17788 45.821 7.57617 45.8027C6.97467 45.7845 6.55535 45.7754 6.31836 45.7754C5.89908 45.7754 5.46159 45.7845 5.00586 45.8027C4.56822 45.821 4.12091 45.8482 3.66504 45.8848C3.66504 46.5249 3.6377 47.2108 3.58301 47.9424C3.52831 48.674 3.45543 49.4423 3.36426 50.2471C4.20306 50.1922 5.15137 50.156 6.20898 50.1377C7.26662 50.1011 8.20579 50.083 9.02637 50.083C9.39093 50.083 9.63697 50.1193 9.76465 50.1924C9.91053 50.2655 9.9834 50.4576 9.9834 50.7686C9.98338 51.0611 9.90135 51.3902 9.7373 51.7559C9.59146 52.1033 9.39094 52.4051 9.13574 52.6611C9.0264 52.7708 8.90783 52.8624 8.78027 52.9355C8.65269 52.9904 8.47941 53.0095 8.26074 52.9912C7.47668 52.9546 6.58294 52.9265 5.58008 52.9082C4.5954 52.8899 3.72907 52.8899 2.98145 52.9082C2.90852 53.3288 2.85385 53.7131 2.81738 54.0605C2.78093 54.4079 2.76271 54.7189 2.7627 54.9932C2.7627 55.9991 3.01774 56.7041 3.52832 57.1064C4.03891 57.5088 4.87792 57.71 6.04492 57.71C6.75608 57.71 7.44022 57.6456 8.09668 57.5176C8.77114 57.3896 9.45478 57.152 10.1475 56.8047C10.4028 56.6584 10.595 56.585 10.7227 56.585C10.923 56.5852 11.1147 56.7311 11.2969 57.0234C11.4975 57.2978 11.5977 57.6005 11.5977 57.9297C11.5975 58.3317 11.4424 58.7155 11.1328 59.0811C10.8411 59.4286 10.4484 59.7312 9.95605 59.9873C9.39092 60.2433 8.71642 60.4355 7.93262 60.5635C7.14857 60.7098 6.33679 60.7822 5.49805 60.7822C3.76579 60.7822 2.48041 60.5077 1.6416 59.959C0.821087 59.392 0.410218 58.3409 0.410156 56.8047C0.410156 56.4938 0.428386 56.1186 0.464844 55.6797C0.519549 55.2407 0.592419 54.7098 0.683594 54.0879C0.829452 53.1918 0.938786 52.3961 1.01172 51.7012C1.08465 50.9879 1.12109 50.2105 1.12109 49.3691C1.12109 48.8206 1.10286 48.2903 1.06641 47.7783C1.04818 47.2663 1.0026 46.7814 0.929688 46.3242C0.656359 46.379 0.473948 46.4062 0.382812 46.4062C0.237141 46.4062 0.136756 46.379 0.0820312 46.3242C0.0273262 46.2511 0 46.1224 0 45.9395C2.51404e-05 45.5555 0.0455688 45.1802 0.136719 44.8145C0.227887 44.4305 0.355475 44.1195 0.519531 43.8818C0.829528 43.4429 1.3042 43.1874 1.94238 43.1143C2.43462 43.0594 3.03615 43.0041 3.74707 42.9492C4.47647 42.8943 5.21526 42.8581 5.96289 42.8398C6.72875 42.8033 7.4129 42.7842 8.01465 42.7842ZM33.5879 49.2051C34.682 49.2051 35.6121 49.3972 36.3779 49.7812C37.1618 50.147 37.5537 50.65 37.5537 51.29C37.5537 51.4546 37.5355 51.674 37.499 51.9482C37.4626 52.2042 37.417 52.4145 37.3623 52.5791C37.3076 52.7254 37.2256 52.8632 37.1162 52.9912C37.0251 53.1007 36.8973 53.1553 36.7334 53.1553C36.6605 53.1553 36.5237 53.1281 36.3232 53.0732C36.2503 53.4573 36.1956 53.8325 36.1592 54.1982C36.1227 54.5638 36.1045 54.9294 36.1045 55.2949C36.1045 55.99 36.2047 56.6124 36.4053 57.1611C36.6241 57.6914 37.0433 58.0204 37.6631 58.1484C37.8271 58.185 37.9547 58.2404 38.0459 58.3135C38.1552 58.3866 38.2099 58.5418 38.21 58.7793C38.21 58.9805 38.1553 59.2369 38.0459 59.5479C37.9547 59.8588 37.7634 60.1424 37.4717 60.3984C37.1982 60.6361 36.7972 60.7549 36.2686 60.7549C35.5574 60.7549 35.0099 60.4994 34.627 59.9873C34.244 59.4569 34.0528 58.7066 34.0527 57.7373C33.5604 58.6335 32.9309 59.3647 32.165 59.9316C31.4175 60.4985 30.5336 60.7822 29.5127 60.7822C28.4187 60.7822 27.534 60.4442 26.8594 59.7676C26.203 59.0726 25.8741 58.0849 25.874 56.8047C25.874 55.8902 26.0481 54.9841 26.3945 54.0879C26.7592 53.1736 27.2786 52.3506 27.9531 51.6191C28.6278 50.8875 29.4395 50.3023 30.3877 49.8633C31.3359 49.4243 32.4026 49.2051 33.5879 49.2051ZM78.8369 49.2051C79.931 49.2051 80.8611 49.3971 81.627 49.7812C82.4109 50.1471 82.8027 50.6499 82.8027 51.29C82.8027 51.4546 82.7845 51.674 82.748 51.9482C82.7116 52.2043 82.666 52.4145 82.6113 52.5791C82.5566 52.7254 82.4746 52.8632 82.3652 52.9912C82.2741 53.1007 82.1463 53.1553 81.9824 53.1553C81.9095 53.1552 81.7727 53.1281 81.5723 53.0732C81.4993 53.4573 81.4447 53.8325 81.4082 54.1982C81.3718 54.5638 81.3535 54.9294 81.3535 55.2949C81.3535 55.99 81.4537 56.6124 81.6543 57.1611C81.8731 57.6914 82.2924 58.0203 82.9121 58.1484C83.0762 58.185 83.2047 58.2403 83.2959 58.3135C83.405 58.3867 83.4599 58.542 83.46 58.7793C83.46 58.9804 83.4053 59.237 83.2959 59.5479C83.2047 59.8588 83.0125 60.1424 82.7207 60.3984C82.4472 60.6361 82.0462 60.7549 81.5176 60.7549C80.8064 60.7549 80.2589 60.4994 79.876 59.9873C79.4931 59.4569 79.3018 58.7066 79.3018 57.7373C78.8095 58.6333 78.1807 59.3647 77.415 59.9316C76.6675 60.4986 75.7828 60.7822 74.7617 60.7822C73.6677 60.7822 72.7831 60.4442 72.1084 59.7676C71.452 59.0726 71.1241 58.0849 71.124 56.8047C71.124 55.8902 71.2971 54.9841 71.6436 54.0879C72.0082 53.1736 72.5276 52.3506 73.2021 51.6191C73.8768 50.8876 74.6886 50.3022 75.6367 49.8633C76.5849 49.4243 77.6517 49.2051 78.8369 49.2051ZM103.515 49.2324C104.609 49.2324 105.484 49.5062 106.141 50.0547C106.797 50.5851 107.126 51.2991 107.126 52.1953C107.126 52.9086 106.906 53.5674 106.469 54.1709C106.031 54.7743 105.448 55.2593 104.719 55.625C103.989 55.9725 103.178 56.1455 102.284 56.1455C101.19 56.1455 100.296 55.8991 99.6035 55.4053C99.6218 56.2465 99.9042 56.9235 100.451 57.4355C101.016 57.9477 101.737 58.2031 102.612 58.2031C103.141 58.2031 103.68 58.1126 104.227 57.9297C104.792 57.7285 105.275 57.4629 105.676 57.1338C105.931 56.9144 106.168 56.8048 106.387 56.8047C106.569 56.8047 106.715 56.8683 106.824 56.9961C106.952 57.1058 107.016 57.2526 107.016 57.4355C107.016 57.8379 106.669 58.368 105.977 59.0264C104.755 60.1969 103.305 60.7822 101.628 60.7822C100.242 60.7822 99.1572 60.389 98.373 59.6025C97.6072 58.7978 97.2237 57.6824 97.2236 56.2559C97.2236 54.9573 97.507 53.7776 98.0723 52.7168C98.6375 51.656 99.3937 50.8142 100.342 50.1924C101.308 49.5523 102.366 49.2325 103.515 49.2324ZM114.526 49.2051C115.091 49.2051 115.638 49.2685 116.167 49.3965C116.696 49.5245 117.134 49.7166 117.48 49.9727C117.827 50.2286 118 50.5487 118 50.9326C118 51.2618 117.882 51.5645 117.645 51.8389C117.426 52.1131 117.161 52.3416 116.852 52.5244C116.56 52.689 116.313 52.7715 116.112 52.7715C115.967 52.7713 115.793 52.6707 115.593 52.4697C115.283 52.2137 114.937 52.0397 114.554 51.9482C114.189 51.8385 113.825 51.7832 113.46 51.7832C112.913 51.7832 112.466 51.8657 112.119 52.0303C111.791 52.1948 111.627 52.4053 111.627 52.6611C111.627 52.8988 111.764 53.091 112.037 53.2373C112.329 53.3836 112.684 53.4942 113.104 53.5674C113.523 53.6223 113.925 53.6766 114.308 53.7314C115.365 53.8778 116.204 54.1342 116.824 54.5C117.444 54.8475 117.754 55.4692 117.754 56.3652C117.754 57.0602 117.553 57.7553 117.152 58.4502C116.769 59.1269 116.204 59.6851 115.456 60.124C114.727 60.5629 113.851 60.7822 112.83 60.7822C112.156 60.7822 111.527 60.6816 110.943 60.4805C110.36 60.2793 109.885 59.9957 109.521 59.6299C109.156 59.2642 108.974 58.8254 108.974 58.3135C108.974 58.0391 109.037 57.7827 109.165 57.5449C109.311 57.289 109.539 57.1612 109.849 57.1611C110.013 57.1611 110.187 57.2064 110.369 57.2979C110.697 57.4807 111.116 57.6548 111.627 57.8193C112.138 57.9657 112.676 58.0391 113.241 58.0391C113.879 58.039 114.444 57.9475 114.937 57.7646C115.429 57.5817 115.675 57.3253 115.675 56.9961C115.675 56.7402 115.483 56.557 115.101 56.4473C114.736 56.3376 114.116 56.2188 113.241 56.0908C112.639 55.9811 112.055 55.8533 111.49 55.707C110.925 55.5607 110.459 55.3133 110.095 54.9658C109.73 54.6 109.548 54.0697 109.548 53.375C109.548 52.6983 109.73 52.0486 110.095 51.4268C110.478 50.7866 111.043 50.2566 111.791 49.8359C112.539 49.4153 113.451 49.2051 114.526 49.2051ZM15.5879 41.7695C16.0618 41.7696 16.4173 41.989 16.6543 42.4277C16.8913 42.8484 17.0462 43.4338 17.1191 44.1836C17.1921 44.9152 17.2285 45.7569 17.2285 46.708C17.2285 48.1529 17.1648 49.406 17.0371 50.4668C16.9277 51.5274 16.8184 52.46 16.709 53.2646C16.636 53.7951 16.5632 54.2989 16.4902 54.7744C16.4356 55.2498 16.4082 55.6795 16.4082 56.0635C16.4082 56.7036 16.5084 57.1702 16.709 57.4629C16.9278 57.7372 17.2749 58.0118 17.749 58.2861C17.8764 58.3592 17.9678 58.4319 18.0225 58.5049C18.0953 58.5597 18.1318 58.6515 18.1318 58.7793C18.1318 58.9256 18.059 59.1549 17.9131 59.4658C17.7672 59.7768 17.5112 60.0603 17.1465 60.3164C16.8001 60.5723 16.317 60.7002 15.6973 60.7002C15.1685 60.7002 14.7758 60.5543 14.5205 60.2617C14.2652 59.9691 14.1377 59.4562 14.1377 58.7246C14.1377 58.3772 14.1651 57.9293 14.2197 57.3809C14.2744 56.8321 14.3382 56.2368 14.4111 55.5967C14.5205 54.8103 14.6126 53.9874 14.6855 53.1279C14.7767 52.2685 14.8222 51.4455 14.8223 50.6592C14.8223 49.5436 14.7676 48.3909 14.6582 47.2021C14.567 45.995 14.2928 44.9431 13.8369 44.0469C13.6728 43.6811 13.5908 43.4156 13.5908 43.251C13.5908 43.0133 13.6912 42.7848 13.8916 42.5654C14.1104 42.3459 14.3756 42.1629 14.6855 42.0166C14.9954 41.8521 15.2962 41.7695 15.5879 41.7695ZM21.8115 41.7695C22.2855 41.7695 22.6409 41.989 22.8779 42.4277C23.115 42.8484 23.2698 43.4338 23.3428 44.1836C23.4157 44.9152 23.4531 45.7569 23.4531 46.708C23.4531 48.1529 23.3884 49.406 23.2607 50.4668C23.1514 51.5274 23.042 52.46 22.9326 53.2646C22.8597 53.7951 22.7868 54.2989 22.7139 54.7744C22.6592 55.2498 22.6318 55.6795 22.6318 56.0635C22.6318 56.7036 22.7321 57.1702 22.9326 57.4629C23.1514 57.7372 23.4985 58.0118 23.9727 58.2861C24.1 58.3592 24.1914 58.4319 24.2461 58.5049C24.319 58.5597 24.3554 58.6515 24.3555 58.7793C24.3555 58.9256 24.2826 59.1549 24.1367 59.4658C23.9908 59.7767 23.7348 60.0604 23.3701 60.3164C23.0237 60.5723 22.5406 60.7002 21.9209 60.7002C21.3924 60.7002 21.0004 60.5541 20.7451 60.2617C20.4898 59.9691 20.3613 59.4562 20.3613 58.7246C20.3613 58.3772 20.3897 57.9293 20.4443 57.3809C20.499 56.8321 20.5628 56.2368 20.6357 55.5967C20.7451 54.8103 20.8363 53.9874 20.9092 53.1279C21.0003 52.2685 21.0459 51.4455 21.0459 50.6592C21.0459 49.5436 20.9912 48.3909 20.8818 47.2021C20.7907 45.995 20.5164 44.9431 20.0605 44.0469C19.8964 43.6811 19.8145 43.4156 19.8145 43.251C19.8145 43.0134 19.9149 42.7848 20.1152 42.5654C20.3341 42.3459 20.5992 42.1629 20.9092 42.0166C21.2191 41.8521 21.5198 41.7695 21.8115 41.7695ZM54.4629 49.2598C54.9186 49.2598 55.2467 49.3785 55.4473 49.6162C55.666 49.854 55.8118 50.1557 55.8848 50.5215C55.9577 50.8873 55.9941 51.2624 55.9941 51.6465C55.9941 52.2318 55.9486 52.808 55.8574 53.375C55.7663 53.9236 55.6751 54.4357 55.584 54.9111C55.5111 55.2585 55.4564 55.5786 55.4199 55.8711C55.3835 56.1636 55.3652 56.4383 55.3652 56.6943C55.3652 57.1516 55.4745 57.4995 55.6934 57.7373C55.9121 57.9567 56.222 58.167 56.623 58.3682C56.787 58.4595 56.869 58.5966 56.8691 58.7793C56.8691 58.9256 56.7963 59.1549 56.6504 59.4658C56.5045 59.7766 56.2494 60.0604 55.8848 60.3164C55.5384 60.5723 55.0644 60.7001 54.4629 60.7002C53.9159 60.7002 53.4867 60.5543 53.1768 60.2617C52.8668 59.9508 52.7119 59.4289 52.7119 58.6973C52.7119 58.2767 52.7484 57.8652 52.8213 57.4629C52.9124 57.0606 53.0127 56.6672 53.1221 56.2832C53.2497 55.8809 53.3499 55.4694 53.4229 55.0488C53.514 54.6281 53.5596 54.1797 53.5596 53.7041C53.5596 53.3749 53.514 53.0641 53.4229 52.7715C53.3317 52.4605 53.1313 52.2313 52.8213 52.085C52.5843 51.957 52.3747 51.8292 52.1924 51.7012C52.0283 51.5548 51.9463 51.3718 51.9463 51.1523C51.9464 50.8963 52.0648 50.6217 52.3018 50.3291C52.5387 50.0366 52.8487 49.79 53.2314 49.5889C53.6326 49.3694 54.0435 49.2598 54.4629 49.2598ZM60.8369 41.7695C61.3109 41.7695 61.6663 41.989 61.9033 42.4277C62.1404 42.8484 62.2962 43.4338 62.3691 44.1836C62.4421 44.9152 62.4785 45.7569 62.4785 46.708C62.4785 48.1529 62.4138 49.406 62.2861 50.4668C62.1767 51.5274 62.0674 52.46 61.958 53.2646C61.8851 53.7951 61.8122 54.2989 61.7393 54.7744C61.6846 55.2498 61.6572 55.6795 61.6572 56.0635C61.6572 56.7036 61.7575 57.1702 61.958 57.4629C62.1768 57.7372 62.5239 58.0118 62.998 58.2861C63.1254 58.3592 63.2168 58.4319 63.2715 58.5049C63.3443 58.5597 63.3808 58.6515 63.3809 58.7793C63.3809 58.9256 63.308 59.1549 63.1621 59.4658C63.0162 59.7767 62.7611 60.0604 62.3965 60.3164C62.05 60.5725 61.5663 60.7002 60.9463 60.7002C60.4178 60.7002 60.0258 60.5541 59.7705 60.2617C59.5152 59.9691 59.3877 59.4562 59.3877 58.7246C59.3877 58.3772 59.4151 57.9293 59.4697 57.3809C59.5244 56.8321 59.5882 56.2368 59.6611 55.5967C59.7705 54.8103 59.8616 53.9874 59.9346 53.1279C60.0257 52.2685 60.0713 51.4455 60.0713 50.6592C60.0713 49.5436 60.0166 48.3909 59.9072 47.2021C59.8161 45.995 59.5418 44.9431 59.0859 44.0469C58.9218 43.6811 58.8398 43.4156 58.8398 43.251C58.8399 43.0134 58.9403 42.7848 59.1406 42.5654C59.3594 42.3459 59.6246 42.1629 59.9346 42.0166C60.2445 41.852 60.5452 41.7695 60.8369 41.7695ZM67.0605 41.7695C67.5347 41.7695 67.8909 41.9888 68.1279 42.4277C68.365 42.8484 68.5198 43.4338 68.5928 44.1836C68.6657 44.9152 68.7021 45.7569 68.7021 46.708C68.7021 48.1529 68.6384 49.406 68.5107 50.4668C68.4014 51.5274 68.292 52.46 68.1826 53.2646C68.1097 53.7951 68.0358 54.2989 67.9629 54.7744C67.9082 55.2498 67.8809 55.6795 67.8809 56.0635C67.8809 56.7036 67.982 57.1702 68.1826 57.4629C68.4015 57.7372 68.7477 58.0119 69.2217 58.2861C69.349 58.3592 69.4404 58.4319 69.4951 58.5049C69.568 58.5597 69.6044 58.6515 69.6045 58.7793C69.6045 58.9256 69.5316 59.1549 69.3857 59.4658C69.2399 59.7767 68.9847 60.0604 68.6201 60.3164C68.2737 60.5725 67.7899 60.7002 67.1699 60.7002C66.6414 60.7002 66.2494 60.5541 65.9941 60.2617C65.7389 59.9691 65.6113 59.4562 65.6113 58.7246C65.6113 58.3772 65.6387 57.9293 65.6934 57.3809C65.7481 56.8321 65.8118 56.2368 65.8848 55.5967C65.9941 54.8103 66.0853 53.9874 66.1582 53.1279C66.2494 52.2685 66.2949 51.4455 66.2949 50.6592C66.2949 49.5436 66.2402 48.3909 66.1309 47.2021C66.0397 45.9951 65.7663 44.943 65.3105 44.0469C65.1464 43.6811 65.0635 43.4156 65.0635 43.251C65.0635 43.0132 65.1647 42.7849 65.3652 42.5654C65.584 42.346 65.8482 42.1629 66.1582 42.0166C66.4681 41.852 66.7688 41.7696 67.0605 41.7695ZM31.9736 52.0303C30.8615 52.0304 29.9412 52.3602 29.2119 53.0186C28.5008 53.677 28.1446 54.4997 28.1445 55.4873C28.1445 56.2188 28.3451 56.8133 28.7461 57.2705C29.1473 57.7095 29.6948 57.9297 30.3877 57.9297C31.117 57.9297 31.7557 57.7004 32.3027 57.2432C32.8678 56.7859 33.3053 56.2095 33.6152 55.5146C33.8158 55.0757 33.9707 54.5999 34.0801 54.0879C34.1895 53.5576 34.2624 53.0364 34.2988 52.5244C33.9889 52.3781 33.6334 52.2594 33.2324 52.168C32.8313 52.0765 32.4113 52.0303 31.9736 52.0303ZM77.2236 52.0303C76.1113 52.0303 75.1903 52.3601 74.4609 53.0186C73.7498 53.677 73.3936 54.4997 73.3936 55.4873C73.3936 56.2189 73.5949 56.8132 73.9961 57.2705C74.3972 57.7094 74.9439 57.9297 75.6367 57.9297C76.3661 57.9297 77.0047 57.7004 77.5518 57.2432C78.1169 56.7859 78.5543 56.2096 78.8643 55.5146C79.0648 55.0757 79.2197 54.6 79.3291 54.0879C79.4385 53.5576 79.5114 53.0364 79.5479 52.5244C79.2379 52.3782 78.8825 52.2594 78.4814 52.168C78.0804 52.0765 77.6611 52.0303 77.2236 52.0303ZM90.623 51.8936C89.6568 51.8936 88.9005 52.0767 88.3535 52.4424C87.8065 52.8082 87.5322 53.311 87.5322 53.9512C87.5323 54.5181 87.7336 54.9567 88.1348 55.2676C88.5359 55.5785 89.0734 55.7344 89.748 55.7344C90.5868 55.7344 91.2437 55.5061 91.7178 55.0488C92.1919 54.5916 92.4287 53.9963 92.4287 53.2646C92.4287 53.0636 92.4105 52.8622 92.374 52.6611C92.3376 52.442 92.3011 52.2594 92.2646 52.1133C91.973 52.0219 91.6904 51.9666 91.417 51.9482C91.1435 51.9117 90.8783 51.8936 90.623 51.8936ZM102.694 51.7832C102.02 51.7832 101.427 51.9662 100.916 52.332C100.424 52.6795 100.068 53.1735 99.8496 53.8135C100.105 53.978 100.433 54.1068 100.834 54.1982C101.235 54.2897 101.637 54.335 102.038 54.335C102.694 54.3349 103.241 54.198 103.679 53.9238C104.116 53.6495 104.336 53.3015 104.336 52.8809C104.336 52.5334 104.189 52.2678 103.897 52.085C103.606 51.884 103.205 51.7832 102.694 51.7832ZM54.709 43.1963C55.2376 43.2146 55.6478 43.3705 55.9395 43.6631C56.2493 43.9557 56.3952 44.3671 56.377 44.8975C56.3587 45.446 56.1764 45.9028 55.8301 46.2686C55.4837 46.616 55.0189 46.79 54.4355 46.79C53.925 46.7718 53.5141 46.6168 53.2041 46.3242C52.8941 46.0316 52.7393 45.6193 52.7393 45.0889C52.7576 44.5222 52.949 44.0652 53.3135 43.7178C53.6782 43.352 54.1437 43.178 54.709 43.1963ZM61.751 7.83984C62.6533 6.95163 64.1005 6.95187 65.0029 7.83984L77.9932 20.627C79.0105 21.6285 78.3018 23.3613 76.875 23.3613H75.625V32.5752C75.625 34.7388 73.873 36.493 71.7119 36.4932H55.043C52.8818 36.493 51.1299 34.7388 51.1299 32.5752V23.3613H49.8799C48.453 23.3613 47.7444 21.6285 48.7617 20.627L61.751 7.83984ZM61.7617 20.3867C60.9613 20.3867 60.3126 21.0366 60.3125 21.8379V25.0303C60.3125 25.8316 60.9613 26.4814 61.7617 26.4814H64.9502C65.7507 26.4814 66.3994 25.8316 66.3994 25.0303V21.8379C66.3993 21.0366 65.7506 20.3867 64.9502 20.3867H61.7617ZM47.1592 0C47.8216 0.000407818 47.922 0.919745 47.4189 1.35156C46.2171 2.38278 45.4561 3.91418 45.4561 5.62305C45.4562 8.72825 47.9705 11.2451 51.0723 11.2451C51.7933 11.2452 52.3846 12.0672 51.8408 12.541C50.5876 13.6319 48.9503 14.2929 47.1592 14.293C43.2168 14.293 40.0206 11.0932 40.0205 7.14648C40.0205 3.19969 43.2167 0 47.1592 0ZM73.9004 4.66309C74.0873 4.15802 74.8015 4.15794 74.9883 4.66309L75.7021 6.5957C75.7609 6.75457 75.8862 6.87969 76.0449 6.93848L77.9756 7.6543C78.4797 7.84147 78.4797 8.55498 77.9756 8.74219L76.0449 9.45801C75.8862 9.5168 75.7609 9.64192 75.7021 9.80078L74.9883 11.7334C74.8015 12.2387 74.0872 12.2386 73.9004 11.7334L73.1865 9.80078C73.1278 9.642 73.0023 9.51684 72.8438 9.45801L70.9131 8.74219C70.4085 8.55513 70.4085 7.84133 70.9131 7.6543L72.8438 6.93848C73.0023 6.87964 73.1278 6.75447 73.1865 6.5957L73.9004 4.66309ZM55.5654 0.600586C55.7522 0.0952697 56.4656 0.0952697 56.6523 0.600586L57.3672 2.5332C57.4259 2.69198 57.5513 2.81721 57.71 2.87598L59.6396 3.59082C60.1444 3.7778 60.1444 4.4927 59.6396 4.67969L57.71 5.39453C57.5514 5.45326 57.426 5.57868 57.3672 5.7373L56.6523 7.66992C56.4656 8.17524 55.7522 8.17524 55.5654 7.66992L54.8506 5.7373C54.7918 5.57879 54.6672 5.4533 54.5088 5.39453L52.5781 4.67969C52.0734 4.4927 52.0734 3.7778 52.5781 3.59082L54.5088 2.87598C54.6672 2.81715 54.7919 2.69183 54.8506 2.5332L55.5654 0.600586Z" fill="black"/>
</svg>
